<svg id="Group_5047" data-name="Group 5047" xmlns="http://www.w3.org/2000/svg" xmlns:xlink="http://www.w3.org/1999/xlink" width="112.107" height="122.4" viewBox="0 0 112.107 122.4">
  <defs>
    <clipPath id="clip-path">
      <rect id="Rectangle_3712" data-name="Rectangle 3712" width="112.107" height="122.4" transform="translate(0 0)" fill="none"/>
    </clipPath>
  </defs>
  <g id="Group_5047-2" data-name="Group 5047" clip-path="url(#clip-path)">
    <path id="Path_7545" data-name="Path 7545" d="M16.58,84.477l-.032-.031a12.245,12.245,0,0,0-.916-.974,11.551,11.551,0,0,1-2.6-3.5,18.1,18.1,0,0,1-1.683-4.643A8.886,8.886,0,0,1,11,73.554a16.713,16.713,0,0,1,.273-4.793c.363-1.245.6-2.529.927-3.785.391-1.482.831-2.951,1.24-4.429.383-1.379.75-2.762,1.13-4.142.526-1.91,1.082-3.811,1.571-5.73a1.359,1.359,0,0,1,.969-1.077q9.72-3.4,19.426-6.844a13.587,13.587,0,0,1,4.444-.869c1.23-.014,2.458-.119,3.687-.19q3.793-.218,7.588-.441c1.547-.088,3.094-.164,4.641-.253,2.544-.146,5.088-.3,7.632-.445,1.546-.089,3.094-.167,4.641-.254,2.616-.146,5.233-.283,7.848-.453a1.957,1.957,0,0,1,1.418.512c1.379,1.1,2.8,2.152,4.149,3.295a23.313,23.313,0,0,1,3.2,3.045,16.3,16.3,0,0,1,2.765,5.178c.227.7.347,1.435.583,2.131a10.317,10.317,0,0,1,.438,2.688,24.451,24.451,0,0,1-.386,4.529,4.178,4.178,0,0,1-.1.6c-.311,1.143-.619,2.287-.951,3.424-.171.585-.388,1.157-.622,1.849a3.494,3.494,0,0,1-.273-.45c-.417-1.079-.809-2.168-1.243-3.24a19.355,19.355,0,0,0-1.112-2.488,2.259,2.259,0,0,0-3.765,0,2.779,2.779,0,0,0-.01,2.586c1.393,3.662,2.8,7.318,4.191,10.982a1.282,1.282,0,0,1,.04.743q-.867,3.246-1.782,6.479a11.209,11.209,0,0,1-.571,1.581c-.227.5-.532.957-.8,1.435a13.451,13.451,0,0,1-3.092,4.039c-.247.2-.467.434-.7.655a12.642,12.642,0,0,1-3.667,2.439,40.929,40.929,0,0,1-3.851,1.44c-3.541,1.167-7.094,2.3-10.643,3.44q-5.468,1.763-10.936,3.524a17.666,17.666,0,0,1-7.944.92,21.168,21.168,0,0,1-5.189-1.493,18.736,18.736,0,0,1-4.379-2.866c-3.486-2.758-6.942-5.554-10.4-8.352-1.619-1.311-3.2-2.662-4.807-4m59.4-23.161a10.8,10.8,0,0,0-.517-4.172A14.357,14.357,0,0,0,73.42,52.39a14.8,14.8,0,0,0-3.227-3.659c-2.8-2.1-5.679-4.1-8.528-6.14a2.807,2.807,0,0,0-.641-.358.433.433,0,0,0-.369.1c-.05.048-.02.26.047.333a3.978,3.978,0,0,0,.614.545c2.459,1.762,4.9,3.558,7.4,5.26a16.323,16.323,0,0,1,3.666,3.548A13.486,13.486,0,0,1,74.384,55.7a16.443,16.443,0,0,1,.952,4.391,12.606,12.606,0,0,1-.289,4.221c-.534,2.02-.957,4.07-1.438,6.1-.334,1.416-.685,2.827-1.031,4.24q-.588,2.4-1.181,4.795a6.555,6.555,0,0,0-.172.76c-.013.1.066.3.132.316a.464.464,0,0,0,.38-.106,1.083,1.083,0,0,0,.2-.467c.129-.564.223-1.136.363-1.7.5-2,1.011-4.008,1.518-6.012.458-1.807.95-3.607,1.364-5.424a17.679,17.679,0,0,0,.8-5.5M25.014,65.523a4.2,4.2,0,0,0,4.394-3.862c.041-.259,0-.513-.332-.555s-.557.038-.64.415a7.544,7.544,0,0,1-.34,1.028,2.575,2.575,0,0,1-2.163,1.891,7.729,7.729,0,0,1-1.67-.117c-.314-.036-.618-.166-.931-.188a.49.49,0,0,0-.388.248.545.545,0,0,0,.115.443.884.884,0,0,0,.426.284c.6.18,1.22.331,1.529.413m19.36-5.013a4.724,4.724,0,0,0,3.585-2.143c.145-.207.264-.423-.04-.626a.5.5,0,0,0-.76.078c-.091.111-.182.224-.275.335a2.979,2.979,0,0,1-4.433.552c-.3-.223-.58-.478-.867-.721-.189-.16-.38-.284-.6-.056a.445.445,0,0,0-.068.655,4.879,4.879,0,0,0,3.461,1.926M33.17,67.3c.074.072.191.285.346.317.255.052.56.049.663-.315a5.1,5.1,0,0,1,.259-.777c.213-.465.486-.572.941-.329a6.007,6.007,0,0,1,.916.645.482.482,0,0,0,.728-.014c.242-.241.156-.467-.044-.682a3.831,3.831,0,0,0-1.667-1.048,1.2,1.2,0,0,0-1.181.224A2.7,2.7,0,0,0,33.17,67.3" fill="#fff"/>
    <path id="Path_7546" data-name="Path 7546" d="M15.632,83.472c1.6,1.333,4.137,3.688,5.755,5,3.454,2.8,6.91,5.594,10.4,8.352a18.742,18.742,0,0,0,4.38,2.866,21.15,21.15,0,0,0,5.188,1.494,17.687,17.687,0,0,0,7.945-.921q5.469-1.758,10.935-3.524c3.549-1.144,7.1-2.273,10.643-3.44a40.927,40.927,0,0,0,3.851-1.44,12.622,12.622,0,0,0,3.667-2.439c.229-.221.449-.454.7-.655a13.438,13.438,0,0,0,3.092-4.039c.268-.477.573-.938.8-1.435a11.041,11.041,0,0,0,.571-1.581q.914-3.232,1.782-6.478a1.293,1.293,0,0,0-.039-.744c-1.389-3.664-2.8-7.32-4.192-10.982a2.779,2.779,0,0,1,.01-2.586,2.259,2.259,0,0,1,3.765,0,19.355,19.355,0,0,1,1.112,2.488c.434,1.073.826,2.161,1.243,3.24a3.684,3.684,0,0,0,.273.451c.234-.692.451-1.264.622-1.85.332-1.137.64-2.281.951-3.424a4.13,4.13,0,0,0,.1-.6,24.365,24.365,0,0,0,.386-4.529,10.365,10.365,0,0,0-.437-2.688c-.237-.695-.357-1.431-.583-2.131A16.319,16.319,0,0,0,85.781,46.7a23.366,23.366,0,0,0-3.2-3.045c-1.346-1.142-2.771-2.191-4.15-3.294a1.952,1.952,0,0,0-1.418-.513c-2.615.17-5.232.307-7.848.454-1.547.086-3.094.165-4.641.253-2.544.146-5.088.3-7.631.445-1.547.089-3.1.165-4.642.253q-3.793.218-7.588.442c-1.229.07-2.457.175-3.687.19a13.56,13.56,0,0,0-4.444.868q-9.7,3.459-19.426,6.844a1.361,1.361,0,0,0-.969,1.077c-.489,1.919-1.045,3.821-1.571,5.73-.38,1.38-.747,2.763-1.129,4.143-.41,1.477-.85,2.946-1.241,4.428-.331,1.256-.563,2.54-.927,3.786A16.7,16.7,0,0,0,11,73.553a8.956,8.956,0,0,0,.35,1.779,18.069,18.069,0,0,0,1.684,4.643,11.552,11.552,0,0,0,2.6,3.5c.336.289.316,1.357.316,1.357l-2.8-3.228a16.441,16.441,0,0,1-2.022-4.167,16.036,16.036,0,0,1-.792-6.891,33.482,33.482,0,0,1,1.523-6.834c.461-1.536.854-3.092,1.286-4.636q.94-3.359,1.894-6.712.165-.582.356-1.156a5.142,5.142,0,0,0,.236-1.845,33.523,33.523,0,0,1,.014-4.121,21.413,21.413,0,0,1,.692-3.069,18.668,18.668,0,0,1,2.035-4.68,22.591,22.591,0,0,1,1.879-2.7A26.043,26.043,0,0,1,24.7,30.478a33.52,33.52,0,0,1,6.717-4.217c2.3-1.081,4.693-1.957,7.058-2.893a34.114,34.114,0,0,1,10.414-2.143,23.417,23.417,0,0,1,10.6,1.6,19.393,19.393,0,0,1,5.3,3.1,43.7,43.7,0,0,1,3.443,3.546,1.061,1.061,0,0,0,.814.394c2.14.059,4.287.049,6.418.223a19.385,19.385,0,0,1,6.509,1.373,8,8,0,0,1,1.794,1.119,1.951,1.951,0,0,1,.562,1.075,2.917,2.917,0,0,1-.64,2.35,12.577,12.577,0,0,1-4.624,3.581c-.062.032-.125.062-.26.129.518.429,1,.835,1.483,1.228,1.251,1.008,2.534,1.978,3.753,3.023a16.418,16.418,0,0,1,3.986,5.013A17.883,17.883,0,0,1,90.1,55.151a19.048,19.048,0,0,1-.048,4.674,58.942,58.942,0,0,1-1.82,7.232,3.686,3.686,0,0,0,.081,2.372,44.362,44.362,0,0,1,1.734,5.177,15.293,15.293,0,0,1,.284,4.963,27.2,27.2,0,0,1-2.116,7.352c-.534,1.389-1.1,2.767-1.675,4.217.235.021.44.056.645.056q4.542,0,9.084,0c1.195,0,1.2,0,1.2,1.189q0,6.606-.013,13.214c0,.115.012.232,0,.347-.031.342.117.443.457.44,3.1-.027,6.2-.038,9.3-.049.376,0,.753.022,1.128.038a.409.409,0,0,1,.435.44c.016.636.031,1.273.03,1.909q-.009,5.475-.026,10.952c0,.549.027,1.1.046,1.649.013.4-.153.64-.575.649-.825.018-1.65.045-2.475.045q-13.647.006-27.294,0c-.695,0-1.391-.081-2.084-.059-1.85.057-3.7.15-5.55.228a.578.578,0,0,1-.216,0,9.745,9.745,0,0,0-3.853-.1c-.361.016-.722.06-1.083.062-4.635.02-9.271.055-13.906.042-3.373-.009-6.746-.1-10.119-.124-2.808-.024-5.616-.012-8.425-.023-.332,0-.664-.043-1-.073-.316-.028-.5-.2-.416-.521a10.92,10.92,0,0,1,.933-2.912,19.14,19.14,0,0,1,4.767-5.27,7.512,7.512,0,0,1,1.325-.824.931.931,0,0,0,.521-.956q-.027-1.934-.032-3.866c0-.3.049-.608.042-.911-.007-.274.146-.356.369-.374.173-.014.348-.012.521-.011l11.995.063c.155,0,.311-.017.379-.021.533-2.361,1.053-4.664,1.583-7.009-1.613.525-3.169,1.046-4.734,1.539a19.46,19.46,0,0,1-7.736.987,17.831,17.831,0,0,1-7.787-2.595c-1.288-.794-2.44-1.81-3.654-2.724-.122-.092-.25-.174-.411-.285-.115.493-.2.929-.318,1.354-.587,2.057-1.1,4.139-1.8,6.158a7.089,7.089,0,0,1-2.958,3.962,8.531,8.531,0,0,1-2.155.871,2.686,2.686,0,0,1-2.144-.3,15.745,15.745,0,0,1-1.98-1.461,2.077,2.077,0,0,1-.165-2.8c.051-.087.12-.163.177-.247.395-.575.528-.592,1.092-.152.211.164.43.317.732.537a2.613,2.613,0,0,0,0-.433c-.409-1.839,1.356-3.476,2.879-3.614.616-.056.977-.182,1.116-.864.23-1.128.62-2.224.849-3.352a26.583,26.583,0,0,0,.312-2.695,1,1,0,0,0-.455-.922c-1.8-1.394-3.589-2.791-5.362-4.212-.4-.322-3.447-2.879-3.784-3.274m59.073,36.64h1.115q12,0,23.99-.009c2.564,0,5.128,0,7.692.018.382,0,.514-.118.5-.494-.027-.578-.024-1.158-.024-1.737q0-5.954.015-11.908c0-.372-.073-.534-.5-.533-3.187.011-6.374-.011-9.561-.011q-8.409,0-16.817.012c-.593,0-1.187,0-1.78-.011a.486.486,0,0,0-.536.445c-.087.365-.194.726-.3,1.087q-1.758,6.087-3.519,12.172c-.091.316-.178.632-.272.969m-25.211.03v-.013H65.933c.319,0,.637.008.956.02.267.009.368-.105.325-.371-.078-.471-.112-.952-.221-1.415a9.42,9.42,0,0,0-3.044-4.8,23.143,23.143,0,0,0-2.769-2.013,17.912,17.912,0,0,0-8.018-2.85,19.944,19.944,0,0,0-5.543-.088,30.379,30.379,0,0,0-4.412.867,20.513,20.513,0,0,0-4.076,1.9,18.022,18.022,0,0,0-5.18,4.753,9.557,9.557,0,0,0-1.581,3.639c-.079.333.128.375.364.376.535,0,1.071-.011,1.607-.011H49.81M61,112.239c.455.273.805.476,1.147.69a13.124,13.124,0,0,1,3.233,2.933,11.105,11.105,0,0,1,1.558,2.423,12.369,12.369,0,0,1,.683,2.67c.07.363.183.483.546.483,2.026,0,4.052.019,6.079.041.219,0,.329-.04.4-.279.285-1.016.607-2.021.9-3.035,1.139-3.913,2.294-7.821,3.4-11.744a8.2,8.2,0,0,0,.026-4.88,3.91,3.91,0,0,0-2.533-2.55,6.925,6.925,0,0,0-3.648-.117,3.809,3.809,0,0,0-3.007,2.452c-.743,1.864-1.634,3.669-2.456,5.5-.3.678-.59,1.364-.9,2.078a2.919,2.919,0,0,0,.36.105,9.136,9.136,0,0,1,3.211,1,5.027,5.027,0,0,1,2.611,3.041c.042.137-.054.317-.086.477l-.151-.011a3.042,3.042,0,0,1-.184-.382c-.59-1.84-2.052-2.677-3.739-3.252a11.011,11.011,0,0,0-5.612-.179.927.927,0,0,0-.571.344c-.443.705-.838,1.44-1.267,2.192m18.407-5.879c.159.011.271.026.382.026l16.2-.028c.317,0,.775.131.912-.025.165-.186.065-.615.065-.938q0-6.1,0-12.209A8.93,8.93,0,0,1,97,91.928c.051-.35-.037-.419-.374-.412-1.4.032-2.809.044-4.213.047q-2.8.006-5.6-.013a.484.484,0,0,0-.545.358c-.429,1.181-.869,2.359-1.34,3.525A6.785,6.785,0,0,1,81.451,99.2a3.706,3.706,0,0,1-2.985.2,2.033,2.033,0,0,0-.382-.04c1.82,2.127,1.943,4.491,1.324,7M36.794,40.378a7.415,7.415,0,0,0-6.327-1.847,14.347,14.347,0,0,0-5.839,2.2,9.738,9.738,0,0,0-4.191,5.15c-.048.14-.071.288-.137.564l16.494-6.068m3.032,71.294a1.266,1.266,0,0,0,.217-.023c.123-.043.241-.1.362-.144a32.9,32.9,0,0,1,3.905-1.529,21.8,21.8,0,0,1,6.136-.686,22.818,22.818,0,0,1,5.933.951c.123.036.369-.015.413-.1.265-.513.488-1.048.754-1.638-.517.084-.912.158-1.31.21a2.792,2.792,0,0,1-3.283-1.707.613.613,0,0,0-.477-.233q-4.233-.009-8.466.014c-1.244,0-2.489.027-3.733.026-.338,0-.475.07-.465.464.035,1.273.013,2.548.014,3.821v.574M67.185,100.9c.543-.1,1.048-.2,1.555-.289a2.314,2.314,0,0,0,1.388-.72,4.957,4.957,0,0,1,2.305-1.478,10.171,10.171,0,0,1,3.71-.075,4.284,4.284,0,0,1,.674.168.263.263,0,0,0-.113-.22,2.11,2.11,0,0,1-.8-2.848,4.959,4.959,0,0,1,2.016-2.213c.6-.346,1.242-.618,1.863-.927.406-.2.809-.407,1.317-.664a2.019,2.019,0,0,0-.315-.077c-.853,0-1.706,0-2.559.007a5.252,5.252,0,0,0-2.271.393c-1.386.641-2.835,1.146-4.264,1.693a1.733,1.733,0,0,0-.986.794c-.839,1.552-1.692,3.1-2.539,4.645-.322.59-.639,1.183-.979,1.811M85.628,76.9l-.134-.011c-.045.206-.076.417-.137.619-.539,1.784-1.063,3.574-1.633,5.349a16.641,16.641,0,0,1-3.637,5.9,9.2,9.2,0,0,1-2.669,2.195c-.053.027-.084.1-.169.2.19.017.313.038.437.039,1.028.009,2.056.019,3.084.019.807,0,.835-.027,1.134-.784.42-1.062.851-2.12,1.263-3.186.694-1.792,1.369-3.592,2.066-5.383a11.186,11.186,0,0,0,.5-4.154,5.5,5.5,0,0,0-.109-.8m-23.237,19.8-1.567.469a.861.861,0,0,0-.645.681c-.306,1.291-.636,2.576-.945,3.866a7.254,7.254,0,0,0-.1.805c.676.016.936-.137,1.153-.662q.695-1.678,1.383-3.359c.232-.567.457-1.136.723-1.8m.317,12.4c.984-.064,1.9-.135,2.828-.179a.673.673,0,0,0,.661-.455c.166-.4.37-.784.544-1.181a4.127,4.127,0,0,0,.148-.513,8.04,8.04,0,0,0-2.852.337.862.862,0,0,0-.419.352c-.311.517-.589,1.055-.91,1.639M22.19,105.548c.571.386,1.119.586,1.659.195a1.45,1.45,0,0,0,.584-1.367,1.96,1.96,0,0,0-1.277-1.211c.03.258.041.491.087.717a1.1,1.1,0,0,1-.7,1.458c-.1.049-.192.113-.35.208"/>
    <path id="Path_7547" data-name="Path 7547" d="M112.106,75.675a5.827,5.827,0,0,1-1.871,1.581,3.929,3.929,0,0,0-1.805,2.892c-.082.694-.315.858-1.014.753a5.813,5.813,0,0,1-3.1-1.79c-.82-.774-1.647-1.542-2.439-2.345a2.074,2.074,0,0,1-.386-.791,3.189,3.189,0,0,1-.062-.6,2.047,2.047,0,0,1,1.231-2.446c1.033-.577,2.074-1.14,3.114-1.705a.447.447,0,0,1,.681.2,17.326,17.326,0,0,0,1.217,1.733,8.507,8.507,0,0,0,3.5,2.336,2.433,2.433,0,0,0,.468.074c.136.025.27.064.47.112M107.75,80.4a10.749,10.749,0,0,1,.357-1.316,3.525,3.525,0,0,1,.657-1.152c.542-.553,1.175-1.017,1.768-1.521.125-.106.237-.226.356-.339a2.671,2.671,0,0,0-.438-.308,8.053,8.053,0,0,1-4.174-3.739c-.162-.317-.333-.324-.616-.162-.715.409-1.45.782-2.165,1.192-.373.214-.726.466-1.078.716-.318.225-.282.473-.009.714.075.067.153.133.229.2.644.569.644.6.013,1.211a.7.7,0,0,1-.067.055c-.326.233-.271.477-.015.718.946.889,1.884,1.788,2.846,2.659A4.107,4.107,0,0,0,107.75,80.4"/>
    <path id="Path_7548" data-name="Path 7548" d="M71.836,6.626c0-1.448-.007-2.9.009-4.343a.819.819,0,0,1,.213-.488q.678-.754,1.4-1.466A.935.935,0,0,1,73.98.072,23.63,23.63,0,0,1,80.074.41c.4.07.6.186.531.7-.155,1.26-.161,2.539-.3,3.8a24.647,24.647,0,0,0,.286,5.3c.037.359-.109.515-.483.446-.611-.112-1.223-.225-1.826-.376a5.45,5.45,0,0,0-4.689.7c-.343.241-.574.173-.844-.146a4.878,4.878,0,0,1-.979-2.952c-.032-.418-.006-.84-.006-1.26h.073m.438-4.23c0,.761.026,1.452-.006,2.14-.047,1.024-.186,2.047-.189,3.071a4.542,4.542,0,0,0,.626,2.659c.392.58.594.63,1.169.207A4.371,4.371,0,0,1,76.913,9.7a28.683,28.683,0,0,1,2.983.5c.3.059.369-.006.315-.294-.059-.312-.085-.629-.13-.944a23.069,23.069,0,0,1,.126-7.683c.066-.344-.033-.486-.351-.533C79.728.721,79.6.684,79.471.676,77.943.582,76.416.483,74.887.4c-.78-.04-.863.051-.907.83-.006.115.008.233-.007.347-.041.306-.092.61-.137.9L72.274,2.4M73.559.938c-.371.3-.714.572-1.043.857-.039.035-.015.22,0,.222a3.776,3.776,0,0,0,.784.062c.12-.009.324-.154.328-.245a6.48,6.48,0,0,0-.064-.9"/>
    <path id="Path_7549" data-name="Path 7549" d="M25.1,122.4a7.636,7.636,0,0,1-3.146-.9c-1.1-.511-2.175-1.074-3.279-1.575-.471-.214-.5-.672-.706-1.033-.064-.11-.076-.249-.137-.362-.417-.766-.337-1.178.382-1.649.385-.252.808-.446,1.211-.671a13.729,13.729,0,0,0,1.386-.8.673.673,0,0,1,.99.041,7.567,7.567,0,0,0,2.637,1.635c.885.3,1.814.47,2.725.693a2.991,2.991,0,0,0,.344.039c.835.1.858.134.373.791-.326.441-.722.838-1,1.306a5.171,5.171,0,0,0-.663,1.525c-.175.822-.266.966-1.117.96m-6.172-2.951a1.155,1.155,0,0,0,.227.171c1.125.563,2.23,1.173,3.386,1.661a17.588,17.588,0,0,0,2.486.719c.242.061.512.066.59-.315a5.463,5.463,0,0,1,1.6-2.91,1.945,1.945,0,0,0,.264-.426,1.764,1.764,0,0,0-.446-.208,10.286,10.286,0,0,1-5.378-2.332.484.484,0,0,0-.627-.055c-.6.339-1.236.628-1.849.953a4.635,4.635,0,0,0-.838.526c-.323.273-.289.411.074.613.312.173.627.342.948.516-.145.362-.269.672-.436,1.087m-.813-.989c.136.295.282.537.614.416a.413.413,0,0,0,.129-.375c-.192-.261-.452-.239-.743-.041"/>
    <path id="Path_7550" data-name="Path 7550" d="M.048,47.411c.006-.087.011-.174.02-.26.067-.629.076-.665.71-.639A3.535,3.535,0,0,0,3.36,45.285a1.035,1.035,0,0,1,.222-.2c.176-.082.365-.137.548-.2a1.852,1.852,0,0,1,.141.475A4.26,4.26,0,0,0,6,48.728c.559.446.556.55.085,1.071-.6.662-1.218,1.308-1.843,1.947a.96.96,0,0,1-.976.205,2.215,2.215,0,0,1-1.723-1.37C1.171,49.8.661,49.094.252,48.332A4.2,4.2,0,0,1,0,47.424l.048-.013M3.8,45.578c-.2.153-.323.241-.438.341a4.348,4.348,0,0,1-1.93,1.028c-.253.055-.518.062-.764.135-.1.029-.24.2-.225.273a3.833,3.833,0,0,0,.294.984c.385.757.827,1.484,1.224,2.235.325.617.311.624.9.275.293-.175.6-.12.7.124.184.447.406.527.776.19a9.674,9.674,0,0,0,1.045-1.151c.536-.679.531-.7-.048-1.318A6.21,6.21,0,0,1,3.8,45.578"/>
    <path id="Path_7551" data-name="Path 7551" d="M75.981,61.315a17.675,17.675,0,0,1-.8,5.5c-.414,1.817-.906,3.617-1.364,5.425-.507,2-1.019,4.006-1.518,6.012-.14.561-.234,1.134-.363,1.7a1.084,1.084,0,0,1-.2.466.458.458,0,0,1-.38.106c-.066-.014-.145-.211-.132-.316a6.3,6.3,0,0,1,.173-.759q.589-2.4,1.18-4.8c.346-1.412.7-2.824,1.032-4.239.481-2.035.9-4.085,1.437-6.105a12.606,12.606,0,0,0,.289-4.221,16.443,16.443,0,0,0-.952-4.391,13.459,13.459,0,0,0-2.006-3.676,16.3,16.3,0,0,0-3.666-3.547c-2.5-1.7-4.937-3.5-7.4-5.261a3.978,3.978,0,0,1-.614-.545c-.067-.073-.1-.285-.047-.333a.429.429,0,0,1,.369-.1,2.766,2.766,0,0,1,.641.357c2.85,2.038,5.727,4.038,8.528,6.14a14.818,14.818,0,0,1,3.227,3.659,14.357,14.357,0,0,1,2.044,4.754,10.8,10.8,0,0,1,.517,4.172"/>
    <path id="Path_7552" data-name="Path 7552" d="M25.014,65.522c-.309-.082-.924-.233-1.529-.413a.884.884,0,0,1-.426-.284.545.545,0,0,1-.115-.443.49.49,0,0,1,.388-.248c.313.022.617.152.931.188a7.794,7.794,0,0,0,1.67.118A2.577,2.577,0,0,0,28.1,62.549a7.6,7.6,0,0,0,.34-1.029c.083-.377.322-.454.64-.415s.373.3.332.555a4.2,4.2,0,0,1-4.394,3.862"/>
    <path id="Path_7553" data-name="Path 7553" d="M44.374,60.509a4.875,4.875,0,0,1-3.461-1.926.443.443,0,0,1,.068-.654c.223-.229.414-.1.6.056.287.242.565.5.867.72a2.979,2.979,0,0,0,4.433-.552c.093-.111.184-.223.275-.335a.5.5,0,0,1,.76-.077c.3.2.185.418.04.625a4.724,4.724,0,0,1-3.585,2.143"/>
    <path id="Path_7554" data-name="Path 7554" d="M33.17,67.3a2.7,2.7,0,0,1,.961-1.979,1.2,1.2,0,0,1,1.181-.224,3.831,3.831,0,0,1,1.667,1.048c.2.215.286.441.044.682a.482.482,0,0,1-.728.014,6.007,6.007,0,0,0-.916-.645c-.455-.243-.728-.136-.941.329a5.1,5.1,0,0,0-.259.777c-.1.364-.408.367-.663.315-.155-.032-.272-.245-.346-.317"/>
    <path id="Path_7555" data-name="Path 7555" d="M36.794,40.378,20.3,46.446c.067-.276.089-.424.138-.563a9.736,9.736,0,0,1,4.19-5.15,14.346,14.346,0,0,1,5.84-2.2,7.413,7.413,0,0,1,6.326,1.846" fill="#fff"/>
    <path id="Path_7556" data-name="Path 7556" d="M107.75,80.4a4.107,4.107,0,0,1-2.336-1.072c-.962-.871-1.9-1.77-2.846-2.659-.256-.241-.311-.485.015-.718a.7.7,0,0,0,.067-.055c.631-.609.631-.642-.013-1.211-.076-.067-.154-.133-.229-.2-.273-.241-.309-.489.009-.714.352-.25.705-.5,1.078-.716.715-.41,1.45-.783,2.165-1.192.283-.162.454-.155.616.162a8.053,8.053,0,0,0,4.174,3.739,2.671,2.671,0,0,1,.438.308c-.119.113-.231.233-.356.339-.593.5-1.226.968-1.768,1.521a3.525,3.525,0,0,0-.657,1.152,10.749,10.749,0,0,0-.357,1.316" fill="#00b9ff"/>
    <path id="Path_7557" data-name="Path 7557" d="M72.274,2.395l1.562.085c.044-.29.1-.594.136-.9.015-.114,0-.232.008-.347.044-.778.126-.87.906-.83,1.529.079,3.057.178,4.585.272.129.008.256.045.385.064.317.047.416.189.35.533a23.1,23.1,0,0,0-.125,7.683c.045.315.071.632.129.944.054.288-.012.353-.314.3a28.468,28.468,0,0,0-2.983-.5,4.369,4.369,0,0,0-3.04.778c-.575.422-.776.372-1.168-.208a4.535,4.535,0,0,1-.626-2.659c0-1.024.142-2.046.189-3.071.032-.688.006-1.379.006-2.14" fill="#fff"/>
    <path id="Path_7558" data-name="Path 7558" d="M73.559.938a6.48,6.48,0,0,1,.064.9c0,.091-.208.236-.328.245a3.776,3.776,0,0,1-.784-.062c-.01,0-.034-.187,0-.222.329-.285.672-.555,1.043-.857" fill="#fff"/>
    <path id="Path_7559" data-name="Path 7559" d="M18.927,119.449l.435-1.087c-.321-.174-.635-.343-.947-.516-.364-.2-.4-.34-.075-.613a4.643,4.643,0,0,1,.839-.526c.612-.325,1.244-.614,1.848-.953a.485.485,0,0,1,.628.055,10.286,10.286,0,0,0,5.378,2.332,1.8,1.8,0,0,1,.446.208,2.024,2.024,0,0,1-.264.426,5.465,5.465,0,0,0-1.6,2.91c-.077.381-.347.376-.589.315a17.588,17.588,0,0,1-2.486-.719c-1.157-.488-2.262-1.1-3.386-1.661a1.155,1.155,0,0,1-.227-.171" fill="#fff"/>
    <path id="Path_7560" data-name="Path 7560" d="M18.114,118.46c.291-.2.551-.22.743.041a.413.413,0,0,1-.129.375c-.332.121-.478-.121-.614-.416" fill="#fff"/>
    <path id="Path_7561" data-name="Path 7561" d="M3.8,45.578a6.21,6.21,0,0,0,1.537,3.116c.579.621.584.639.048,1.318A9.674,9.674,0,0,1,4.34,51.163c-.37.337-.592.257-.776-.19-.1-.244-.41-.3-.7-.124-.589.349-.575.342-.9-.275-.4-.751-.839-1.478-1.224-2.235a3.833,3.833,0,0,1-.294-.984c-.015-.077.127-.244.225-.273.246-.073.511-.08.764-.135a4.348,4.348,0,0,0,1.93-1.028c.115-.1.241-.188.438-.341" fill="#fff"/>
  </g>
</svg>
