<svg id="Group_6430" data-name="Group 6430" xmlns="http://www.w3.org/2000/svg" xmlns:xlink="http://www.w3.org/1999/xlink" width="20.624" height="19.684" viewBox="0 0 20.624 19.684">
  <defs>
    <clipPath id="clip-path">
      <path id="Path_8909" data-name="Path 8909" d="M10.325,0a.657.657,0,0,0-.508.415L7.387,5.032A2.587,2.587,0,0,1,5.729,6.223L.581,7.064c-.62.1-.767.552-.328,1L3.892,11.8a2.594,2.594,0,0,1,.622,1.947L3.721,18.9c-.1.622.287.9.851.624L9.25,17.218a2.578,2.578,0,0,1,2.042.012l4.657,2.343a.894.894,0,0,0,.4.111h.009c.325,0,.513-.273.448-.726L16.058,13.8a2.59,2.59,0,0,1,.641-1.94l3.67-3.705c.441-.446.3-.9-.32-1l-5.141-.884a2.593,2.593,0,0,1-1.648-1.21L10.87.419A.654.654,0,0,0,10.364,0Z" transform="translate(0)" fill="none"/>
    </clipPath>
    <radialGradient id="radial-gradient" cx="0.175" cy="1.006" r="1.089" gradientTransform="matrix(0.943, 0, 0, -1, 0.001, 1.988)" gradientUnits="objectBoundingBox">
      <stop offset="0" stop-color="#ffc200"/>
      <stop offset="0.355" stop-color="#ffc200"/>
      <stop offset="0.509" stop-color="#ffbc06"/>
      <stop offset="0.729" stop-color="#ffae19"/>
      <stop offset="0.988" stop-color="#ff9638"/>
      <stop offset="1" stop-color="#ff953a"/>
    </radialGradient>
  </defs>
  <g id="Group_6429" data-name="Group 6429" clip-path="url(#clip-path)">
    <rect id="Rectangle_4191" data-name="Rectangle 4191" width="20.995" height="19.802" transform="translate(-0.186 0.001)" fill="url(#radial-gradient)"/>
  </g>
</svg>
