<svg xmlns="http://www.w3.org/2000/svg" xmlns:xlink="http://www.w3.org/1999/xlink" width="311.79" height="303.956" viewBox="0 0 311.79 303.956">
    <defs>
        <clipPath id="clip-path">
            <rect id="Rectangle_2813" data-name="Rectangle 2813" width="102.133" height="169.841" fill="none"/>
        </clipPath>
        <clipPath id="clip-path-3">
            <rect id="Rectangle_2998" data-name="Rectangle 2998" width="103.622" height="100.679" fill="none"/>
        </clipPath>
    </defs>
    <path id="Path_7141" data-name="Path 7141" d="M218.28,154.052c-4.046-48.157-30.9-37.515-61.443-60.565-41.6-31.386-50.68-58.568-84.288-48.61C49.5,51.708,56.816,96.5,42.93,108.6s-32.1,19.576-37.663,56.853S13.58,232.2,49.742,233.142s47.286,56.216,78.959,43.95,24.15-26.476,51.779-43.178,41.05-41.181,37.8-79.863" transform="translate(239.466 -24.927) rotate(60)" fill="#c6efff" opacity="0.25"/>
    <g id="Group_4284" data-name="Group 4284" transform="translate(104.829 72.471)">
        <g id="Group_3930" data-name="Group 3930">
            <g id="Group_3929" data-name="Group 3929" clip-path="url(#clip-path)">
                <path id="Path_6919" data-name="Path 6919" d="M88.925,169.841l-57-.034a12.494,12.494,0,0,1-12.409-12.572l.028-144.667A12.494,12.494,0,0,1,31.966,0l57,.034a12.494,12.494,0,0,1,12.409,12.572l-.028,144.667a12.494,12.494,0,0,1-12.424,12.568" transform="translate(-9.714 0)" fill="#0169ad"/>
                <path id="Path_6920" data-name="Path 6920" d="M92.652,10.1,81.6,10.093a2.764,2.764,0,0,0-2.684,2.838v2.03A2.764,2.764,0,0,1,76.232,17.8l-21.543-.013a2.767,2.767,0,0,1-2.683-2.842V12.916a2.767,2.767,0,0,0-2.683-2.842l-3.887,0-9.673-.005a8.75,8.75,0,0,0-8.7,8.8l-.027,141.205a8.75,8.75,0,0,0,8.691,8.805l56.888.034a8.75,8.75,0,0,0,8.7-8.8L101.342,18.9a8.75,8.75,0,0,0-8.691-8.8" transform="translate(-13.458 -4.948)" fill="#fafafa"/>
                <rect id="Rectangle_2809" data-name="Rectangle 2809" width="0.631" height="0.897" transform="translate(68.679 9.731)" fill="#263238"/>
                <rect id="Rectangle_2810" data-name="Rectangle 2810" width="0.631" height="1.296" transform="translate(69.707 9.331)" fill="#263238"/>
                <rect id="Rectangle_2811" data-name="Rectangle 2811" width="0.631" height="1.596" transform="translate(70.735 9.032)" fill="#263238"/>
                <rect id="Rectangle_2812" data-name="Rectangle 2812" width="0.631" height="2.175" transform="translate(71.763 8.453)" fill="#263238"/>
                <path id="Path_6921" data-name="Path 6921" d="M159.356,19h-3.171a.229.229,0,0,1-.228-.23v-1.6a.228.228,0,0,1,.225-.23h3.173a.058.058,0,0,1,.041.017.059.059,0,0,1,.017.041v.526h.34a.059.059,0,0,1,.058.059v.769a.059.059,0,0,1-.058.059h-.34v.526a.058.058,0,0,1-.058.059m-.058-1.939h-3.115a.109.109,0,0,0-.109.112v1.6a.113.113,0,0,0,.112.113H159.3V18.36a.058.058,0,0,1,.058-.059h.339V17.65h-.339a.058.058,0,0,1-.058-.058Z" transform="translate(-77.635 -8.332)" fill="#263238"/>
                <path id="Path_6922" data-name="Path 6922" d="M156.705,18.992V17.7h2.706v1.3Z" transform="translate(-78.007 -8.699)" fill="#263238"/>
                <path id="Path_6923" data-name="Path 6923" d="M149.716,20.524a.232.232,0,1,0-.231.234.233.233,0,0,0,.231-.234" transform="translate(-74.297 -9.975)" fill="#263238"/>
                <path id="Path_6924" data-name="Path 6924" d="M148.14,19.317l.3.3a.692.692,0,0,1,.989,0l.3-.3a1.107,1.107,0,0,0-1.581,0" transform="translate(-73.744 -9.333)" fill="#263238"/>
                <path id="Path_6925" data-name="Path 6925" d="M148.469,17.673a1.759,1.759,0,0,0-1.256.528l.3.3a1.345,1.345,0,0,1,1.921,0l.3-.3a1.761,1.761,0,0,0-1.256-.528" transform="translate(-73.282 -8.688)" fill="#263238"/>
                <path id="Path_6926" data-name="Path 6926" d="M146.254,17.047l.3.3a2.019,2.019,0,0,1,2.883,0l.3-.3a2.433,2.433,0,0,0-3.475,0" transform="translate(-72.805 -8.021)" fill="#263238"/>
                <path id="Path_6927" data-name="Path 6927" d="M104.327,48.281H100.5a.478.478,0,0,1-.475-.481V45.165a.478.478,0,0,1,.475-.481h3.83a.478.478,0,0,1,.475.481V47.8a.478.478,0,0,1-.475.481" transform="translate(-49.791 -21.967)" fill="#263238"/>
                <path id="Path_6928" data-name="Path 6928" d="M101.624,42.751h-.5v-.6a1.838,1.838,0,1,1,3.675,0v.384h-.5v-.384a1.336,1.336,0,1,0-2.67,0Z" transform="translate(-50.338 -19.797)" fill="#263238"/>
                <path id="Path_6929" data-name="Path 6929" d="M28.226,149.236A25.975,25.975,0,0,1,41.373,126.88c5.544-3.035,11.963-3.841,18.106-5.269s12.508-3.786,16.308-8.877c5.133-6.878,4.152-16.654,7.856-24.417a21.688,21.688,0,0,1,18.415-12.135v118.2a7.145,7.145,0,0,1-7.1,7.188H35.327a7.145,7.145,0,0,1-7.1-7.188Z" transform="translate(-14.051 -37.451)" fill="#ebebeb"/>
                <path id="Path_6930" data-name="Path 6930" d="M53.236,92.013c0-4.383,2.271-7,5.417-7s5.437,2.615,5.437,7-2.292,7-5.437,7-5.417-2.614-5.417-7m9.417,0c0-3.676-1.631-5.7-4-5.7s-4,2.025-4,5.7,1.631,5.7,4,5.7,4-2.025,4-5.7" transform="translate(-26.501 -41.794)" fill="#263238"/>
                <path id="Path_6931" data-name="Path 6931" d="M88.23,91.895c0,4.679-2.524,7.117-6.214,7.117a6.173,6.173,0,0,1-3.224-.747l.563-1.14A4.72,4.72,0,0,0,82,97.773c2.932,0,4.816-1.907,4.816-5.642,0-.314-.019-.707-.058-1.12A4.335,4.335,0,0,1,82.6,93.369c-2.7,0-4.583-1.612-4.583-4.128,0-2.576,2-4.226,4.641-4.226,3.612,0,5.573,2.536,5.573,6.88m-1.922-2.732c0-1.513-1.243-2.949-3.592-2.949-1.962,0-3.321,1.16-3.321,2.988,0,1.808,1.32,2.968,3.417,2.968,2.078,0,3.5-1.3,3.5-3.008" transform="translate(-38.836 -41.794)" fill="#263238"/>
                <path id="Path_6932" data-name="Path 6932" d="M102.412,92.882a1.035,1.035,0,0,1,1.03-1.062,1.051,1.051,0,0,1,1.049,1.062,1.068,1.068,0,0,1-1.049,1.081,1.052,1.052,0,0,1-1.03-1.081m0,8.374a1.035,1.035,0,0,1,1.03-1.062,1.051,1.051,0,0,1,1.049,1.062,1.068,1.068,0,0,1-1.049,1.081,1.053,1.053,0,0,1-1.03-1.081" transform="translate(-50.98 -45.139)" fill="#263238"/>
                <path id="Path_6933" data-name="Path 6933" d="M119.2,97.635v1.258h-9.534v-1l5.651-5.6c1.534-1.533,1.825-2.457,1.825-3.4,0-1.592-1.107-2.575-3.185-2.575a4.586,4.586,0,0,0-3.709,1.533l-.99-.865a6.069,6.069,0,0,1,4.816-1.965c2.757,0,4.505,1.415,4.505,3.715,0,1.317-.408,2.5-2.234,4.305l-4.621,4.6Z" transform="translate(-54.387 -41.794)" fill="#263238"/>
                <path id="Path_6934" data-name="Path 6934" d="M132.375,92.013c0-4.383,2.272-7,5.418-7s5.437,2.615,5.437,7-2.291,7-5.437,7-5.418-2.614-5.418-7m9.418,0c0-3.676-1.631-5.7-4-5.7s-4,2.025-4,5.7,1.631,5.7,4,5.7,4-2.025,4-5.7" transform="translate(-65.896 -41.794)" fill="#263238"/>
                <path id="Path_6935" data-name="Path 6935" d="M54.93,50.705a9.814,9.814,0,1,1-9.813-9.934,9.874,9.874,0,0,1,9.813,9.934" transform="translate(-17.574 -20.043)" fill="#e0e0e0"/>
            </g>
        </g>
        <g id="Group_3932" data-name="Group 3932">
            <g id="Group_3931" data-name="Group 3931" clip-path="url(#clip-path)">
                <path id="Path_6936" data-name="Path 6936" d="M98.693,162.384H3.751a3.508,3.508,0,0,1-3.487-3.53V132.837a3.509,3.509,0,0,1,3.487-3.53H98.693a3.509,3.509,0,0,1,3.487,3.53v26.017a3.508,3.508,0,0,1-3.487,3.53" transform="translate(-0.131 -63.568)" fill="#fff"/>
                <path id="Path_6937" data-name="Path 6937" d="M98.562,162.256a6.464,6.464,0,0,0,.673-.081,3.5,3.5,0,0,0,2.531-2.145,4.222,4.222,0,0,0,.244-1.75c0-1.3-.008-2.8-.012-4.48-.006-3.372-.014-7.5-.022-12.283q0-3.591-.01-7.669a8.353,8.353,0,0,0-.122-2.031,3.435,3.435,0,0,0-1.075-1.722,3.365,3.365,0,0,0-1.9-.809c-.71-.031-1.457-.007-2.2-.013l-93.043.039a3.426,3.426,0,0,0-1.574.395A3.472,3.472,0,0,0,.846,130.8a3.5,3.5,0,0,0-.56,1.529c-.046.538-.013,1.13-.023,1.69q0,3.407,0,6.767,0,6.719,0,13.229,0,1.626,0,3.238c0,.535-.007,1.078.006,1.6a3.474,3.474,0,0,0,.39,1.476,3.38,3.38,0,0,0,2.363,1.743,9.822,9.822,0,0,0,1.531.057H6.1l12.091,0,41.831.029,28.2.042,7.667.025,1.994.013c.449,0,.679.014.679.014s-.23.009-.679.014l-1.994.013-7.667.024-28.2.042-41.831.028-12.091,0H4.55a9.962,9.962,0,0,1-1.576-.061A3.632,3.632,0,0,1,.433,160.45a3.72,3.72,0,0,1-.42-1.588c-.014-.544,0-1.073-.007-1.612q0-1.612,0-3.238,0-6.5,0-13.229,0-3.36,0-6.767c.011-.574-.024-1.122.025-1.72a3.76,3.76,0,0,1,.6-1.649,3.73,3.73,0,0,1,1.3-1.175,3.682,3.682,0,0,1,1.7-.425l93.043.039c.748.008,1.472-.015,2.214.019a3.544,3.544,0,0,1,2,.855,3.611,3.611,0,0,1,1.126,1.812,3.845,3.845,0,0,1,.125,1.051q0,.516,0,1.025-.005,4.072-.01,7.669c-.009,4.787-.016,8.911-.022,12.283,0,1.685-.009,3.182-.012,4.48a4.276,4.276,0,0,1-.262,1.775,3.5,3.5,0,0,1-.828,1.23,3.444,3.444,0,0,1-1.758.917,3.088,3.088,0,0,1-.507.052c-.114,0-.171,0-.171,0" transform="translate(0 -63.44)" fill="#263238"/>
                <path id="Path_6938" data-name="Path 6938" d="M188.467,140.062a.126.126,0,0,1-.091-.039.129.129,0,0,1,0-.18l2.512-2.435a.125.125,0,0,1,.178,0,.128.128,0,0,1,0,.179l-2.512,2.435a.125.125,0,0,1-.087.035" transform="translate(-93.756 -67.533)" fill="#263238"/>
                <path id="Path_6939" data-name="Path 6939" d="M190.977,140.061a.125.125,0,0,1-.088-.036l-2.486-2.456a.127.127,0,0,1,0-.179.124.124,0,0,1,.178,0l2.486,2.456a.129.129,0,0,1,0,.18.124.124,0,0,1-.09.038" transform="translate(-93.768 -67.522)" fill="#263238"/>
                <path id="Path_6942" data-name="Path 6942" d="M107.62,151.16c0,.073-11.417.132-25.5.132s-25.5-.059-25.5-.132,11.414-.132,25.5-.132,25.5.059,25.5.132" transform="translate(-28.188 -74.246)" fill="#263238"/>
                <path id="Path_6943" data-name="Path 6943" d="M119.637,163.448c0,.073-14.107.132-31.5.132s-31.507-.059-31.507-.132,14.1-.132,31.507-.132,31.5.059,31.5.132" transform="translate(-28.188 -80.287)" fill="#e0e0e0"/>
                <path id="Path_6944" data-name="Path 6944" d="M119.637,170.807c0,.073-14.107.132-31.5.132s-31.507-.059-31.507-.132,14.1-.132,31.507-.132,31.5.059,31.5.132" transform="translate(-28.188 -83.904)" fill="#e0e0e0"/>
                <path id="Path_6945" data-name="Path 6945" d="M97.839,227.25H34.789a3.508,3.508,0,0,1-3.487-3.53V208.054a3.509,3.509,0,0,1,3.487-3.53h63.05a3.509,3.509,0,0,1,3.487,3.53v15.667a3.508,3.508,0,0,1-3.487,3.53" transform="translate(-15.582 -100.545)" fill="#fafafa"/>
                <path id="Path_6946" data-name="Path 6946" d="M97.708,227.123c0-.009.157-.007.458-.048a3.286,3.286,0,0,0,1.264-.447,3.5,3.5,0,0,0,1.429-1.623,3.54,3.54,0,0,0,.288-1.367q0-.762,0-1.621c-.006-2.294-.014-5.1-.022-8.352q0-2.442-.01-5.214a5.251,5.251,0,0,0-.11-1.373,3.46,3.46,0,0,0-.607-1.254,3.356,3.356,0,0,0-2.473-1.323l-63.259.028a3.34,3.34,0,0,0-2.064.719,3.378,3.378,0,0,0-1.188,1.836A4.01,4.01,0,0,0,31.3,208.2v1.153q0,1.15,0,2.292,0,4.568,0,9,0,1.106,0,2.2c0,.363-.01.737.016,1.081a3.705,3.705,0,0,0,.254,1.012,3.418,3.418,0,0,0,1.322,1.552,3.383,3.383,0,0,0,1.948.513l8.221,0,28.443.029,19.175.042,5.213.024,1.355.013c.305,0,.462.014.462.014s-.157.009-.462.014l-1.355.013-5.213.024-19.175.042-28.443.028-8.221,0a3.638,3.638,0,0,1-3.5-2.217,3.975,3.975,0,0,1-.274-1.088c-.028-.382-.015-.738-.018-1.105q0-1.1,0-2.2,0-4.423,0-9V208.2a4.294,4.294,0,0,1,.117-1.179,3.643,3.643,0,0,1,1.281-1.979,3.6,3.6,0,0,1,2.224-.775l63.271.05a3.534,3.534,0,0,1,2.6,1.4,3.63,3.63,0,0,1,.633,1.32,5.389,5.389,0,0,1,.111,1.416q-.005,2.768-.01,5.214c-.009,3.254-.016,6.058-.022,8.352q0,.859-.008,1.622a3.618,3.618,0,0,1-.307,1.4,3.538,3.538,0,0,1-1.473,1.638,3.227,3.227,0,0,1-1.287.427,2.875,2.875,0,0,1-.462.021" transform="translate(-15.451 -100.417)" fill="#263238"/>
                <path id="Path_6947" data-name="Path 6947" d="M160.571,211.915a.126.126,0,0,1-.091-.039.129.129,0,0,1,0-.18l1.726-1.673a.125.125,0,0,1,.177,0,.128.128,0,0,1,0,.18l-1.725,1.673a.125.125,0,0,1-.087.035" transform="translate(-79.869 -103.231)" fill="#263238"/>
                <path id="Path_6948" data-name="Path 6948" d="M162.3,211.915a.124.124,0,0,1-.088-.036l-1.708-1.687a.128.128,0,0,1,0-.18.124.124,0,0,1,.177,0l1.708,1.687a.129.129,0,0,1,0,.18.125.125,0,0,1-.09.038" transform="translate(-79.878 -103.224)" fill="#263238"/>
                <path id="Path_6951" data-name="Path 6951" d="M105.063,219.5c0,.073-7.844.132-17.518.132s-17.519-.059-17.519-.132,7.842-.132,17.519-.132,17.518.059,17.518.132" transform="translate(-40.008 -107.841)" fill="#263238"/>
                <path id="Path_6952" data-name="Path 6952" d="M113.319,227.942c0,.073-9.693.132-21.646.132s-21.648-.059-21.648-.132,9.691-.132,21.648-.132,21.646.059,21.646.132" transform="translate(-40.007 -111.992)" fill="#e0e0e0"/>
                <path id="Path_6953" data-name="Path 6953" d="M113.319,233c0,.073-9.693.132-21.646.132s-21.648-.059-21.648-.132,9.691-.132,21.648-.132,21.646.059,21.646.132" transform="translate(-40.007 -114.478)" fill="#e0e0e0"/>
                <path id="Path_6954" data-name="Path 6954" d="M97.835,278.737H35.313a3.508,3.508,0,0,1-3.487-3.53v-15.5a3.508,3.508,0,0,1,3.487-3.529H97.835a3.508,3.508,0,0,1,3.487,3.529v15.5a3.509,3.509,0,0,1-3.487,3.53" transform="translate(-15.843 -125.94)" fill="#fafafa"/>
                <path id="Path_6955" data-name="Path 6955" d="M97.7,278.608c0-.009.156-.007.455-.047a3.3,3.3,0,0,0,1.256-.44,3.5,3.5,0,0,0,1.428-1.6,3.538,3.538,0,0,0,.3-1.352q0-.756,0-1.608c-.007-2.276-.014-5.058-.023-8.286q0-2.424-.01-5.174a5.175,5.175,0,0,0-.11-1.363,3.449,3.449,0,0,0-.6-1.245,3.357,3.357,0,0,0-2.446-1.33l-62.765.026a3.377,3.377,0,0,0-3.243,2.521,3.793,3.793,0,0,0-.117,1.1v1.143q0,1.142,0,2.275,0,4.533,0,8.925,0,1.1,0,2.185c0,.361-.009.731.016,1.072a3.749,3.749,0,0,0,.252,1,3.426,3.426,0,0,0,1.307,1.545,3.371,3.371,0,0,0,1.927.524l8.157,0,28.22.028,19.025.042,5.173.025,1.345.013c.3,0,.458.014.458.014s-.155.009-.458.014l-1.345.013-5.173.025L71.7,278.7l-28.22.029-8.157,0a3.629,3.629,0,0,1-2.061-.561,3.681,3.681,0,0,1-1.406-1.66,4.014,4.014,0,0,1-.272-1.08c-.027-.379-.015-.732-.018-1.1q0-1.088,0-2.185,0-4.389,0-8.925v-3.418a4.049,4.049,0,0,1,.126-1.17,3.639,3.639,0,0,1,3.5-2.717l62.778.052a3.537,3.537,0,0,1,2.573,1.409,3.62,3.62,0,0,1,.626,1.311,5.344,5.344,0,0,1,.112,1.4q-.006,2.747-.011,5.174c-.009,3.228-.016,6.01-.022,8.286q-.005.854-.01,1.61a3.6,3.6,0,0,1-.318,1.383,3.536,3.536,0,0,1-1.472,1.616,3.245,3.245,0,0,1-1.278.421,2.851,2.851,0,0,1-.459.02" transform="translate(-15.712 -125.811)" fill="#263238"/>
                <path id="Path_6956" data-name="Path 6956" d="M160.118,263.516a.124.124,0,0,1-.091-.039.129.129,0,0,1,0-.18l1.713-1.66a.126.126,0,0,1,.178,0,.129.129,0,0,1,0,.18l-1.713,1.66a.126.126,0,0,1-.087.035" transform="translate(-79.644 -128.604)" fill="#263238"/>
                <path id="Path_6957" data-name="Path 6957" d="M161.832,263.517a.124.124,0,0,1-.088-.036l-1.695-1.675a.129.129,0,0,1,0-.18.125.125,0,0,1,.178,0l1.695,1.675a.129.129,0,0,1,0,.18.124.124,0,0,1-.09.038" transform="translate(-79.653 -128.598)" fill="#263238"/>
                <path id="Path_6960" data-name="Path 6960" d="M105.03,271.042c0,.073-7.785.132-17.386.132s-17.387-.059-17.387-.132,7.783-.132,17.387-.132,17.386.059,17.386.132" transform="translate(-40.123 -133.18)" fill="#263238"/>
                <path id="Path_6961" data-name="Path 6961" d="M113.225,279.421c0,.073-9.619.132-21.483.132s-21.484-.059-21.484-.132,9.617-.132,21.484-.132,21.483.059,21.483.132" transform="translate(-40.123 -137.299)" fill="#e0e0e0"/>
                <path id="Path_6962" data-name="Path 6962" d="M113.225,284.439c0,.073-9.619.132-21.483.132s-21.484-.059-21.484-.132,9.617-.132,21.484-.132,21.483.059,21.483.132" transform="translate(-40.123 -139.766)" fill="#e0e0e0"/>
            </g>
        </g>
    </g>
    <g id="Group_4283" data-name="Group 4283" transform="translate(24.706 66.283)">
        <g id="Group_4282" data-name="Group 4282" transform="translate(0 0)" clip-path="url(#clip-path-3)">
            <path id="Path_7137" data-name="Path 7137" d="M103.543,95.2l-10.614-18.7a50.12,50.12,0,1,0-12,13.352l-.017.023Z" transform="translate(0.079 0.075)" fill="#fff"/>
            <path id="Path_7138" data-name="Path 7138" d="M103.622,95.274,80.941,90.14l-.3-.068.191-.251.017-.022.284.282a50.007,50.007,0,0,1-24.036,10.154,45.238,45.238,0,0,1-7.935.405c-1.365-.077-2.755-.109-4.157-.227l-4.235-.637a50.568,50.568,0,0,1-31.335-20.1A50,50,0,0,1,.955,60.307,51.1,51.1,0,0,1,1.545,38,49.459,49.459,0,0,1,12.291,17.378,50.369,50.369,0,0,1,31.613,3.584,51.154,51.154,0,0,1,54.09.133a49.467,49.467,0,0,1,20.629,6.1A50.843,50.843,0,0,1,98.5,35.522a54.184,54.184,0,0,1,2.169,16.3,49.867,49.867,0,0,1-7.5,24.847l0-.2c6.606,11.893,9.779,17.6,10.444,18.8L92.84,76.665l-.058-.1.062-.1a49.738,49.738,0,0,0,7.268-24.658,53.727,53.727,0,0,0-2.214-16.1A50.257,50.257,0,0,0,74.358,6.886,48.768,48.768,0,0,0,54.033.911,50.429,50.429,0,0,0,31.913,4.33,49.627,49.627,0,0,0,12.9,17.909,48.727,48.727,0,0,0,2.324,38.2a50.4,50.4,0,0,0-.6,21.957,49.287,49.287,0,0,0,8.317,19.086A49.975,49.975,0,0,0,40.888,99.147l4.18.647c1.384.12,2.757.157,4.105.239a44.656,44.656,0,0,0,7.845-.366,49.824,49.824,0,0,0,23.864-9.907l1.244-.958-.959,1.241-.017.022-.115-.319,22.588,5.526" transform="translate(0 0)" fill="#00488f"/>
            <path id="Path_7139" data-name="Path 7139" d="M32.471,37.466h3.164l6.9-9.624V21.525s4.892-.3,4.316,7.971.046,6.165.046,6.165,10.386.04,11.248.942c.628.655.911,10.97,1.021,16.566a6.056,6.056,0,0,1-4.293,6.1,4.522,4.522,0,0,1-1.117.151c-2.59,0-15.824-2.106-15.824-2.106H32.471Z" transform="translate(9.328 6.183)" fill="#ff725e"/>
            <path id="Path_7140" data-name="Path 7140" d="M25.434,32.561,27.381,54.2H32.8V33Z" transform="translate(7.307 9.353)" fill="#ff725e"/>
        </g>
    </g>
</svg>
