<svg xmlns="http://www.w3.org/2000/svg" xmlns:xlink="http://www.w3.org/1999/xlink" width="98.5" height="91.15" viewBox="0 0 98.5 91.15">
  <defs>
    <linearGradient id="linear-gradient" x1="0.033" y1="0.265" x2="0.895" y2="0.821" gradientUnits="objectBoundingBox">
      <stop offset="0" stop-color="#0057bc"/>
      <stop offset="1" stop-color="#071234"/>
    </linearGradient>
    <linearGradient id="linear-gradient-2" x1="0.178" y1="0.788" x2="0.993" y2="0.145" gradientUnits="objectBoundingBox">
      <stop offset="0" stop-color="#05b"/>
      <stop offset="0.04" stop-color="#005dbf"/>
      <stop offset="0.19" stop-color="#017acf"/>
      <stop offset="0.35" stop-color="#0290db"/>
      <stop offset="0.53" stop-color="#02a0e4"/>
      <stop offset="0.73" stop-color="#02aae9"/>
      <stop offset="1" stop-color="#03adeb"/>
    </linearGradient>
  </defs>
  <g id="wallet-with-card-sticking-out" transform="translate(0 0.001)">
    <path id="Path_7276" data-name="Path 7276" d="M0,47.257c.127-.706.2-1.429.386-2.119.248-.933.579-1.843.877-2.765C2.483,38.587,3.72,34.8,4.928,31.01c1.4-4.4,2.82-8.8,4.15-13.229,1.087-3.6,2.053-7.246,3.085-10.867A12.8,12.8,0,0,1,13.322,3.9,10.455,10.455,0,0,1,15.287,1.44,5.547,5.547,0,0,1,20.155.093,11.148,11.148,0,0,1,24.5,1.942,52.186,52.186,0,0,1,30.773,6.9,150.133,150.133,0,0,1,41.634,17.814c.574.629,1.131,1.264,1.694,1.9.061.066.116.143.193.232Q24.887,38.132,6.242,56.319c-.342-.37-.673-.717-1-1.071C3.9,53.8,2.588,52.312,1.2,50.905A3.536,3.536,0,0,1,.033,48.35a.979.979,0,0,0-.028-.177v-.916Z" fill="url(#linear-gradient)"/>
    <path id="Path_7277" data-name="Path 7277" d="M99.072,40.992v1.325c-.05.37-.1.74-.155,1.1a8.271,8.271,0,0,1-2.257,4.691c-1.738,1.772-3.482,3.527-5.232,5.287q-3.055,3.063-6.131,6.115-3.32,3.3-6.65,6.606-4.429,4.4-8.869,8.78-3.146,3.1-6.3,6.2-5.066,4.967-10.138,9.923a9.564,9.564,0,0,1-5.11,2.61c-.508.094-1.021.138-1.534.2h-1.12a2.775,2.775,0,0,0-.3-.044,10.115,10.115,0,0,1-6.153-2.5c-2.831-2.55-5.486-5.265-8.057-8.069A.9.9,0,0,1,31,83.1a1.324,1.324,0,0,1,.408-.127,3.389,3.389,0,0,0,2.412-1c.557-.508,1.093-1.043,1.634-1.573q2.285-2.235,4.564-4.476c1.948-1.91,3.9-3.808,5.833-5.729a2.713,2.713,0,0,0,.121-3.968c-.436-.5-.916-.955-1.391-1.418-1.788-1.766-3.587-3.521-5.375-5.287a6.575,6.575,0,0,0-1.772-1.313,2.069,2.069,0,0,0-2.191.132A15.387,15.387,0,0,0,32.967,60.3q-2.732,2.69-5.447,5.392l-5.337,5.287a2.668,2.668,0,0,1-3.532.1c-.513-.458-1-.944-1.485-1.429q-2.492-2.483-4.967-4.972c-1.705-1.716-3.433-3.411-5.088-5.171-1.639-1.744-3.2-3.56-4.8-5.348-.331-.37-.673-.734-1.015-1.1.3.121.574.281.855.408a6.144,6.144,0,0,0,3.963.53A10.639,10.639,0,0,0,9.076,52.73a16.821,16.821,0,0,0,3.234-2.588c2.031-1.921,4.04-3.852,6.06-5.784q2.9-2.773,5.8-5.541,3.543-3.386,7.092-6.766c2.02-1.926,4.034-3.863,6.054-5.789q3.22-3.08,6.446-6.153,3.51-3.353,7.014-6.7c1.352-1.3,2.71-2.6,4.029-3.929A11.911,11.911,0,0,1,57.333,7.36a10.338,10.338,0,0,1,7.6-1.082,10.5,10.5,0,0,1,5.447,3.057C71.6,10.6,72.807,11.88,74.066,13.1c2.506,2.445,5.044,4.846,7.555,7.279,2.119,2.059,4.216,4.139,6.33,6.209q1.772,1.738,3.549,3.477c1.534,1.5,3.091,2.986,4.6,4.514a10.1,10.1,0,0,1,2.71,4.8c.127.535.188,1.082.276,1.623Z" transform="translate(-0.583 -2.686)" fill="url(#linear-gradient-2)"/>
  </g>
</svg>
