<svg xmlns="http://www.w3.org/2000/svg" width="46.1" height="24.833" viewBox="0 0 46.1 24.833">
    <g id="_02c422b2-816f-4dfa-99e9-2642b940c779" data-name="02c422b2-816f-4dfa-99e9-2642b940c779" transform="translate(-0.01)">
        <path id="Path_7165" data-name="Path 7165" d="M645.472,314.187h-1.966v-.32c0-1.524,0-3.049,0-4.574a3.052,3.052,0,0,0-.082-.7.806.806,0,0,0-1.06-.649,1.831,1.831,0,0,0-1.215,1.047,3.119,3.119,0,0,0-.34,1.5c0,1.107,0,2.214,0,3.321v.37H638.84v-7.746H640.7c-.024.439-.047.86-.073,1.342a2.968,2.968,0,0,1,1.222-1.218,2.855,2.855,0,0,1,2.271-.148,1.944,1.944,0,0,1,1.164,1.336c.212-.25.4-.509.627-.735a2.822,2.822,0,0,1,3.129-.509,2,2,0,0,1,1.053,1.647,6.059,6.059,0,0,1,.054.814c.006,1.642,0,3.285.011,4.927,0,.256-.077.323-.321.316-.551-.016-1.1,0-1.69,0v-.4c0-1.488,0-2.976,0-4.465a3.5,3.5,0,0,0-.049-.622.865.865,0,0,0-1.309-.7,2.12,2.12,0,0,0-1.195,1.5,3.665,3.665,0,0,0-.12.939c-.014,1.134-.005,2.268-.005,3.4v.333Z" transform="translate(-604.052 -289.567)" fill="#2bb9ed"/>
        <path id="Path_7166" data-name="Path 7166" d="M12.085,309.452c-.215.68-.414,1.3-.607,1.922-.577,1.853-1.156,3.7-1.72,5.56a.364.364,0,0,1-.434.311c-.507-.021-1.016-.019-1.524,0a.351.351,0,0,1-.42-.3c-.458-1.584-.935-3.162-1.406-4.742a.422.422,0,0,0-.053-.077c-.182.634-.353,1.248-.535,1.859-.3,1.008-.614,2.011-.906,3.021a.272.272,0,0,1-.321.236c-.526-.01-1.052-.008-1.579,0a.263.263,0,0,1-.306-.222q-1.1-3.646-2.205-7.288c-.023-.076-.035-.155-.06-.264.114-.007.21-.016.306-.016.535,0,1.071.006,1.606,0a.26.26,0,0,1,.306.223q.654,2.455,1.322,4.908a.518.518,0,0,0,.048.087c.16-.614.3-1.214.473-1.8.317-1.078.65-2.151.99-3.223a.33.33,0,0,1,.244-.177c.507-.018,1.016-.005,1.524-.015.161,0,.219.073.261.212q.732,2.476,1.472,4.949a.368.368,0,0,0,.052.078c.18-.71.344-1.409.534-2.1.267-.97.549-1.935.835-2.9.026-.088.116-.222.18-.224.623-.017,1.246-.01,1.924-.01Z" transform="translate(0 -292.601)" fill="#2bb9ed"/>
        <path id="Path_7167" data-name="Path 7167" d="M185.006,62.284H183.06a5.07,5.07,0,0,1,1.027-3.483,4.409,4.409,0,0,1,3.271-1.415c-.109-.44-.245-.852-.31-1.274a6.19,6.19,0,0,1,.355-3.5,3.308,3.308,0,0,1,5.379-.977,4.175,4.175,0,0,1,.949,2.132,6.262,6.262,0,0,1-.277,3.348,3.084,3.084,0,0,1-3.037,2.1c-1.016.01-2.032-.007-3.049,0a2.342,2.342,0,0,0-1.756.67,2.647,2.647,0,0,0-.6,1.709C184.989,61.813,185.006,62.04,185.006,62.284Zm3.872-7.155c.04.255.09.753.2,1.234a1.226,1.226,0,0,0,.81.95,1.358,1.358,0,0,0,1.824-1.015,5.015,5.015,0,0,0-.09-3.1,1.166,1.166,0,0,0-1.1-.864,1.285,1.285,0,0,0-1.316.774,4.96,4.96,0,0,0-.329,2.022Z" transform="translate(-173.085 -47.893)" fill="#2bb9ed"/>
        <path id="Path_7168" data-name="Path 7168" d="M636.025,54.18c.008.1.019.173.019.243q0,3.62,0,7.239a4.4,4.4,0,0,1-.711,2.528,3.564,3.564,0,0,1-2.108,1.529,3.99,3.99,0,0,1-.89.063.2.2,0,0,1-.147-.134c-.011-.533-.007-1.066-.007-1.624a1.749,1.749,0,0,0,1.543-.685,2.132,2.132,0,0,0,.3-1.219,2.7,2.7,0,0,1-1.614.419,3.037,3.037,0,0,1-2.111-.721,3.092,3.092,0,0,1-.886-1.912,7.57,7.57,0,0,1,.255-3.52,2.993,2.993,0,0,1,3.067-2.2q1.51,0,3.02,0h.275Zm-1.9,1.787c-.456,0-.872.013-1.286,0a1.128,1.128,0,0,0-1.154.743,4.726,4.726,0,0,0-.226,3.088,1.214,1.214,0,0,0,1.438.952,1.114,1.114,0,0,0,1.17-1.145c.048-.45.051-.905.056-1.358.009-.743,0-1.486,0-2.276Z" transform="translate(-595.044 -51.23)" fill="#2bb9ed"/>
        <path id="Path_7169" data-name="Path 7169" d="M325.837,246.488V243h1.96v11.382H325.95c.021-.38.042-.759.063-1.136a7.883,7.883,0,0,1-.7.755,2.7,2.7,0,0,1-4.253-1.161,5.575,5.575,0,0,1,.032-3.864,3.69,3.69,0,0,1,3.631-2.488c.36,0,.72,0,1.111,0Zm.055,1.716c-.273-.048-.467-.085-.661-.118a1.822,1.822,0,0,0-2.148,1.117,4.415,4.415,0,0,0-.052,2.834,1.177,1.177,0,0,0,2.079.451,2.369,2.369,0,0,0,.59-1.166C325.828,250.295,325.834,249.252,325.891,248.2Z" transform="translate(-303.263 -229.771)" fill="#2bb9ed"/>
        <path id="Path_7170" data-name="Path 7170" d="M491.2,314.353H489.34V313.2c-.023.022-.054.039-.068.066a2.828,2.828,0,0,1-3.316,1.119,1.943,1.943,0,0,1-1.243-2.248,2.6,2.6,0,0,1,1.873-2.094,6.962,6.962,0,0,1,2.264-.412l.266-.014c.19-1.117-.265-1.592-1.219-1.642a4.82,4.82,0,0,0-2.266.466c-.073.033-.147.064-.266.115-.043-.4-.089-.771-.122-1.144-.047-.535-.044-.541.47-.681a7.745,7.745,0,0,1,3.606-.181,2.081,2.081,0,0,1,1.794,2.031c.056,1.032.031,2.068.046,3.1.011.8.028,1.6.042,2.395,0,.081,0,.161,0,.278Zm-2.075-3.448c-.364.028-.717.034-1.063.087a2.069,2.069,0,0,0-1.206.506.93.93,0,0,0-.2,1.005.8.8,0,0,0,.781.485A1.762,1.762,0,0,0,489.124,310.905Z" transform="translate(-458.293 -289.732)" fill="#2bb9ed"/>
        <path id="Path_7171" data-name="Path 7171" d="M485.137,52.391c-.053-.544-.107-1.038-.144-1.533a.223.223,0,0,1,.122-.171,7.494,7.494,0,0,1,4.123-.269,2.03,2.03,0,0,1,1.669,2.112c.095,1.547.045,3.1.056,4.654,0,.488,0,.976,0,1.479H484.95V56.807h4.042a1.5,1.5,0,0,0,.029-.2c-.018-1.133-.036-2.267-.06-3.4a3.276,3.276,0,0,0-.064-.539.945.945,0,0,0-.818-.8,4.426,4.426,0,0,0-2.575.355C485.4,52.264,485.293,52.318,485.137,52.391Z" transform="translate(-458.54 -47.505)" fill="#2bb9ed"/>
        <path id="Path_7172" data-name="Path 7172" d="M416.993,11.161H415.07V0h1.923Z" transform="translate(-392.464)" fill="#2bb9ed"/>
        <path id="Path_7173" data-name="Path 7173" d="M250.8,309.69h1.951v7.753H250.8Z" transform="translate(-237.137 -292.831)" fill="#2bb9ed"/>
        <path id="Path_7174" data-name="Path 7174" d="M247.192,244.837a1.232,1.232,0,0,1-1.233-1.225,1.242,1.242,0,0,1,2.484.014,1.246,1.246,0,0,1-1.251,1.211Z" transform="translate(-232.56 -229.213)" fill="#2bb9ed"/>
    </g>
</svg>
