<svg xmlns="http://www.w3.org/2000/svg" width="18.562" height="18.706" viewBox="0 0 18.562 18.706">
  <path id="Path_6497" data-name="Path 6497" d="M55.48,207.994a2.21,2.21,0,1,0,2.21,2.21A2.237,2.237,0,0,0,55.48,207.994Zm0,2.968a.758.758,0,1,1,.758-.758A.768.768,0,0,1,55.48,210.962Zm0-5.935a5.093,5.093,0,0,0-5.115,5.115v.126c0,1.389.821,3.031,2.336,4.862a18.106,18.106,0,0,0,2.273,2.21l.442.379.442-.379a25.644,25.644,0,0,0,2.273-2.21c1.579-1.831,2.336-3.41,2.336-4.862v-.126A4.948,4.948,0,0,0,55.48,205.026Zm3.6,5.241c0,1.894-2.273,4.357-3.6,5.557-.379-.379-1.01-.947-1.642-1.642-1.326-1.515-2.021-2.841-2.021-3.852V210.2a3.6,3.6,0,0,1,7.2,0v.063Zm-6.819,7.514H45.693a2.237,2.237,0,0,1-2.21-2.21v-8.145l-.316.316a.785.785,0,0,1-1.073-.063h0a.785.785,0,0,1,.063-1.073l8.524-7.388a.664.664,0,0,1,.821,0l5.241,4.546a8.557,8.557,0,0,0-1.263-.126,4.169,4.169,0,0,0-.884.063.38.38,0,0,1-.253-.063l-3.031-2.589a.305.305,0,0,0-.442,0l-5.935,5.178V215.7a.768.768,0,0,0,.758.758h5.872c.126,0,.189.063.316.126.253.253.442.505.631.695C52.765,217.339,52.575,217.781,52.26,217.781Z" transform="translate(-41.911 -199.075)" fill="#52555b"/>
</svg>
