<svg id="Group_4394" data-name="Group 4394" xmlns="http://www.w3.org/2000/svg" xmlns:xlink="http://www.w3.org/1999/xlink" width="14.105" height="14.025" viewBox="0 0 14.105 14.025">
  <defs>
    <clipPath id="clip-path">
      <rect id="Rectangle_2302" data-name="Rectangle 2302" width="14.105" height="14.025" fill="#888"/>
    </clipPath>
  </defs>
  <g id="Group_3142" data-name="Group 3142" transform="translate(0 0)" clip-path="url(#clip-path)">
    <path id="Path_6471" data-name="Path 6471" d="M1.05,0H7.792a1.376,1.376,0,0,1,.744.246.862.862,0,0,1,.311.621V13.158c0,.128-.064.187-.064.246h.434V9.324A.548.548,0,0,1,9.4,8.9.684.684,0,0,1,9.9,8.713h2.972a.7.7,0,0,1,.5.187.545.545,0,0,1,.183.424V13.4h.37a.163.163,0,0,1,.187.187V13.9c0,.069-.059.128-.187.128H1.05a.979.979,0,0,1-.739-.247A.769.769,0,0,1,0,13.158V.867A.862.862,0,0,1,.311.246,1.374,1.374,0,0,1,1.05,0M12.306,9.827h-.493c-.059,0-.118,0-.118.059l-.069.059v.493l.069.069c0,.059.059.059.118.059h.493c.069,0,.069,0,.128-.059V9.886c-.059-.059-.059-.059-.128-.059M11.015,12.1h-.562c-.059,0-.059,0-.118.069v.68h.739c0-.059.059-.059.059-.128V12.3a.21.21,0,0,0-.059-.128.061.061,0,0,0-.059-.069m1.291,0h-.493c-.059,0-.118,0-.118.069a.2.2,0,0,0-.069.128v.424c0,.069.069.069.069.128h.739v-.68c-.059-.069-.059-.069-.128-.069M11.015,11h-.68v.68c.059,0,.059.059.118.059h.562l.059-.059a.252.252,0,0,0,.059-.128v-.433c0-.06-.059-.06-.059-.119Zm1.291,0h-.611c0,.059-.069.059-.069.119v.433a.24.24,0,0,0,.069.128.206.206,0,0,0,.118.059h.493c.069,0,.069-.059.128-.059V11ZM11.015,9.827h-.562c-.059,0-.059,0-.118.059v.621c.059.059.059.059.118.059h.562a.058.058,0,0,0,.059-.059l.059-.069V9.944l-.059-.059a.058.058,0,0,0-.059-.059M3.465,3.893h-1.3c-.123,0-.182,0-.246.059a.525.525,0,0,0-.123.246v.926a.314.314,0,0,0,.123.246c.065.069.123.069.246.069h1.3a.34.34,0,0,0,.246-.069.3.3,0,0,0,.123-.246V4.2a.479.479,0,0,0-.123-.246.384.384,0,0,0-.246-.059m0-2.346h-1.3c-.123,0-.182,0-.246.059a.487.487,0,0,0-.123.247v.926a.315.315,0,0,0,.123.246c.065.059.123.059.246.059h1.3a.382.382,0,0,0,.246-.059.3.3,0,0,0,.123-.246V1.853a.448.448,0,0,0-.123-.247.384.384,0,0,0-.246-.059m3.218,0h-1.3a.383.383,0,0,0-.246.059.451.451,0,0,0-.123.247v.926a.3.3,0,0,0,.123.246.381.381,0,0,0,.246.059h1.3c.123,0,.182,0,.246-.059a.316.316,0,0,0,.123-.246V1.853a.49.49,0,0,0-.123-.247c-.064-.059-.124-.059-.246-.059M3.465,10.94h-1.3a.33.33,0,0,0-.246.118c-.059.06-.123.128-.123.188v.926a.313.313,0,0,0,.123.246.329.329,0,0,0,.246.119h1.3a.475.475,0,0,0,.246-.119.3.3,0,0,0,.123-.246v-.926a.318.318,0,0,0-.123-.188.477.477,0,0,0-.246-.118m3.218,0h-1.3a.477.477,0,0,0-.246.118.32.32,0,0,0-.123.188v.926a.3.3,0,0,0,.123.246.476.476,0,0,0,.246.119h1.3a.329.329,0,0,0,.246-.119.315.315,0,0,0,.123-.246v-.926c0-.059-.064-.128-.123-.188a.33.33,0,0,0-.246-.118M3.465,8.585h-1.3a.336.336,0,0,0-.246.128c-.059,0-.123.128-.123.187v.926a.349.349,0,0,0,.123.246c.065.06.123.06.246.06h1.3a.379.379,0,0,0,.246-.06.33.33,0,0,0,.123-.246V8.9c0-.059-.058-.187-.123-.187a.5.5,0,0,0-.246-.128m3.218,0h-1.3a.5.5,0,0,0-.246.128c-.064,0-.123.128-.123.187v.926a.332.332,0,0,0,.123.246.379.379,0,0,0,.246.06h1.3c.123,0,.182,0,.246-.06a.351.351,0,0,0,.123-.246V8.9c0-.059-.064-.187-.123-.187a.336.336,0,0,0-.246-.128M3.465,6.239h-1.3c-.123,0-.182.059-.246.059a.523.523,0,0,0-.123.246v.937a.349.349,0,0,0,.123.246c.065.059.123.059.246.059h1.3a.382.382,0,0,0,.246-.059.33.33,0,0,0,.123-.246V6.544A.478.478,0,0,0,3.711,6.3c-.059,0-.187-.059-.246-.059m3.218,0h-1.3c-.058,0-.187.059-.246.059a.481.481,0,0,0-.123.246v.937a.332.332,0,0,0,.123.246.381.381,0,0,0,.246.059h1.3c.123,0,.182,0,.246-.059a.351.351,0,0,0,.123-.246V6.544A.527.527,0,0,0,6.929,6.3c-.064,0-.124-.059-.246-.059m0-2.346h-1.3a.383.383,0,0,0-.246.059.483.483,0,0,0-.123.246v.926a.3.3,0,0,0,.123.246.339.339,0,0,0,.246.069h1.3c.123,0,.182,0,.246-.069a.316.316,0,0,0,.123-.246V4.2a.529.529,0,0,0-.123-.246c-.064-.059-.124-.059-.246-.059" transform="translate(0 0)" fill="#888" fill-rule="evenodd"/>
  </g>
</svg>
