<svg xmlns="http://www.w3.org/2000/svg" width="30" height="20.188" viewBox="0 0 30 20.188">
  <g id="pager" transform="translate(0 -64)">
    <g id="Group_624" data-name="Group 624" transform="translate(0 64)">
      <path id="Path_398" data-name="Path 398" d="M12.188,79.141h3.75a.846.846,0,1,0,0-1.682h-3.75a.846.846,0,1,0,0,1.682Zm-7.5,0h3.75a.846.846,0,1,0,0-1.682H4.688a.846.846,0,1,0,0,1.682ZM26.25,64H3.75A3.571,3.571,0,0,0,0,67.365V80.824a3.571,3.571,0,0,0,3.75,3.365h22.5A3.571,3.571,0,0,0,30,80.824V67.365A3.57,3.57,0,0,0,26.25,64Zm1.875,16.824a1.79,1.79,0,0,1-1.875,1.682H3.75a1.79,1.79,0,0,1-1.875-1.682V74.094h26.25Zm0-8.412H1.875V67.365A1.79,1.79,0,0,1,3.75,65.682h22.5a1.79,1.79,0,0,1,1.875,1.682Z" transform="translate(0 -64)" fill="#707070"/>
    </g>
  </g>
</svg>
