<svg xmlns="http://www.w3.org/2000/svg" xmlns:xlink="http://www.w3.org/1999/xlink" width="24" height="24" viewBox="0 0 24 24">
    <defs>
        <clipPath id="clip-path">
            <rect id="Rectangle_249" data-name="Rectangle 249" width="24" height="24" transform="translate(176 721)" fill="#bc4040"/>
        </clipPath>
    </defs>
    <g id="Mask_Group_8" data-name="Mask Group 8" transform="translate(-176 -721)" clip-path="url(#clip-path)">
        <g id="shopping-cart" transform="translate(174.856 719.605)">
            <path id="Path_142" data-name="Path 142" d="M2.233,2.233H4.175A2.065,2.065,0,0,1,6.229,4.465L5.3,15.583a3.121,3.121,0,0,0,3.114,3.382H20.305a3.211,3.211,0,0,0,3.137-2.913l.6-8.372a3.1,3.1,0,0,0-3.137-3.36H6.5" fill="none" stroke="#232323" stroke-linecap="round" stroke-linejoin="round" stroke-miterlimit="10" stroke-width="1.674"/>
            <path id="Path_143" data-name="Path 143" d="M18.14,24.558a1.4,1.4,0,1,0-1.4-1.4A1.4,1.4,0,0,0,18.14,24.558Z" fill="none" stroke="#232323" stroke-linecap="round" stroke-linejoin="round" stroke-miterlimit="10" stroke-width="1.674"/>
            <path id="Path_144" data-name="Path 144" d="M9.209,24.558a1.4,1.4,0,1,0-1.4-1.4A1.4,1.4,0,0,0,9.209,24.558Z" fill="none" stroke="#232323" stroke-linecap="round" stroke-linejoin="round" stroke-miterlimit="10" stroke-width="1.674"/>
            <path id="Path_145" data-name="Path 145" d="M10.047,8.93h13.4" fill="none" stroke="#232323" stroke-linecap="round" stroke-linejoin="round" stroke-miterlimit="10" stroke-width="1.674"/>
        </g>
    </g>
</svg>
