<svg xmlns="http://www.w3.org/2000/svg" xmlns:xlink="http://www.w3.org/1999/xlink" width="24" height="24" viewBox="0 0 24 24">
    <defs>
        <clipPath id="clip-path">
            <rect id="Rectangle_247" data-name="Rectangle 247" width="24" height="24" transform="translate(101 734)" fill="#bc4040"/>
        </clipPath>
    </defs>
    <g id="Mask_Group_7" data-name="Mask Group 7" transform="translate(-101 -734)" clip-path="url(#clip-path)">
        <g id="category-2" transform="translate(99.605 732.605)">
            <path id="Path_138" data-name="Path 138" d="M18.977,11.163h2.233q3.349,0,3.349-3.349V5.581q0-3.349-3.349-3.349H18.977q-3.349,0-3.349,3.349V7.814Q15.628,11.163,18.977,11.163Z" fill="none" stroke="#292d32" stroke-linecap="round" stroke-linejoin="round" stroke-miterlimit="10" stroke-width="1.3"/>
            <path id="Path_139" data-name="Path 139" d="M5.581,24.558H7.814q3.349,0,3.349-3.349V18.977q0-3.349-3.349-3.349H5.581q-3.349,0-3.349,3.349v2.233Q2.233,24.558,5.581,24.558Z" fill="none" stroke="#292d32" stroke-linecap="round" stroke-linejoin="round" stroke-miterlimit="10" stroke-width="1.3"/>
            <path id="Path_140" data-name="Path 140" d="M6.7,11.163A4.465,4.465,0,1,0,2.233,6.7,4.465,4.465,0,0,0,6.7,11.163Z" fill="none" stroke="#292d32" stroke-linecap="round" stroke-linejoin="round" stroke-miterlimit="10" stroke-width="1.3"/>
            <path id="Path_141" data-name="Path 141" d="M20.093,24.558a4.465,4.465,0,1,0-4.465-4.465A4.465,4.465,0,0,0,20.093,24.558Z" fill="none" stroke="#292d32" stroke-linecap="round" stroke-linejoin="round" stroke-miterlimit="10" stroke-width="1.3"/>
        </g>
    </g>
</svg>
