<svg xmlns="http://www.w3.org/2000/svg" width="9.21" height="9.21" viewBox="0 0 9.21 9.21">
  <g id="Group_4966" data-name="Group 4966" transform="translate(-202.972 -348.12)">
    <path id="Path_7434" data-name="Path 7434" d="M29.072,4.1A4.1,4.1,0,1,1,24.967,0a4.1,4.1,0,0,1,4.105,4.1" transform="translate(182.61 348.62)" fill="none" stroke="#003b82" stroke-width="1"/>
    <path id="Path_7435" data-name="Path 7435" d="M37.857,16.975a.153.153,0,0,1-.162-.143V13.523l1.749-1.4a.177.177,0,0,1,.228.01.2.2,0,0,1,0,.255L38.09,13.672v3.16c0,.079-.144.143-.233.143" transform="translate(169.882 338.64)" fill="#003b82"/>
    <path id="Path_7444" data-name="Path 7444" d="M37.695,16.832" transform="translate(169.882 338.64)" fill="#003b82"/>
  </g>
</svg>
