<svg id="Group_4961" data-name="Group 4961" xmlns="http://www.w3.org/2000/svg" xmlns:xlink="http://www.w3.org/1999/xlink" width="33.895" height="31.058" viewBox="0 0 33.895 31.058">
  <defs>
    <clipPath id="clip-path">
      <rect id="Rectangle_3688" data-name="Rectangle 3688" width="33.895" height="31.058" transform="translate(0 0)" fill="#004990"/>
    </clipPath>
  </defs>
  <g id="Group_4960" data-name="Group 4960" transform="translate(0 0)" clip-path="url(#clip-path)">
    <path id="Path_7499" data-name="Path 7499" d="M33.895,28.439a3.491,3.491,0,0,1-.564,1.461,2.9,2.9,0,0,1-2.445,1.158q-7.255,0-14.511-.006-4.539,0-9.077-.006a3.057,3.057,0,0,1-1.93-.566A2.834,2.834,0,0,1,4.231,28.13c-.01-1.082,0-2.165,0-3.246,0-.588.247-.827.84-.872A3.459,3.459,0,0,0,8.176,21.8a.769.769,0,0,0,0-.527,3.491,3.491,0,0,0-4.85-1.845c-.685.354-.955.272-1.34-.4-.515-.9-1.034-1.8-1.543-2.7a2.777,2.777,0,0,1,.385-3.5,3.531,3.531,0,0,1,.74-.552q10.12-5.9,20.246-11.8a2.8,2.8,0,0,1,4.1,1.108q.725,1.263,1.448,2.526c.4.69.333.959-.333,1.387a3.46,3.46,0,0,0-1.431,4.046.44.44,0,0,0,.494.355q2.451-.023,4.9-.006a2.769,2.769,0,0,1,2.786,2.1c.045.156.078.317.117.475v3.843a.849.849,0,0,1-.869.612,3.394,3.394,0,0,0-2.61,1.353,3.333,3.333,0,0,0-.467,3.6A3.4,3.4,0,0,0,32.978,24a.915.915,0,0,1,.917.6ZM12.708,11.26H12.36q-2.617,0-5.235,0a1.442,1.442,0,0,0-1.538,1.527c0,.806.016,1.612,0,2.417-.008.309.1.409.393.466A4.909,4.909,0,0,1,5.9,25.282c-.256.057-.313.161-.309.4.012.751.006,1.5.007,2.252,0,1.2.544,1.746,1.736,1.748q2.484,0,4.969,0c.127,0,.254-.017.4-.027,0-.4-.008-.763,0-1.126a.726.726,0,0,1,.682-.789c.4-.008.687.32.693.8,0,.362,0,.724,0,1.111.143.011.251.027.358.027q8.249,0,16.5-.015a1.436,1.436,0,0,0,1.557-1.578c.006-.762-.017-1.525.015-2.285.014-.349-.1-.458-.433-.535a4.873,4.873,0,0,1-3.677-5.9,4.755,4.755,0,0,1,3.772-3.7c.244-.058.343-.141.338-.409-.018-.817,0-1.634,0-2.451a1.436,1.436,0,0,0-1.539-1.526q-8.266,0-16.532,0c-.115,0-.231.012-.362.019,0,.549.008,1.057,0,1.564a.65.65,0,0,1-.718.685c-.389-.019-.633-.3-.642-.774s0-.967,0-1.5M8.514,9.808c.008.019.015.037.023.056H24.22c-.013-.088-.018-.141-.03-.193a4.778,4.778,0,0,1,1.634-4.994.254.254,0,0,0,.057-.388c-.4-.676-.781-1.357-1.171-2.036a1.447,1.447,0,0,0-2.227-.586L8.817,9.618c-.1.06-.2.126-.3.189m-.659,8.836.049-.056c-.077-.114-.147-.233-.234-.339A3.586,3.586,0,0,0,5.009,16.9a.719.719,0,0,1-.778-.822c-.007-.74,0-1.479,0-2.219V12.318c-.1.048-.191.084-.272.131-.582.336-1.166.671-1.745,1.013a1.458,1.458,0,0,0-.586,2.191c.4.711.821,1.411,1.211,2.127.128.236.246.255.49.172a4.668,4.668,0,0,1,4.208.492l.32.2" transform="translate(0 0)" fill="#004990"/>
    <path id="Path_7500" data-name="Path 7500" d="M21.9,30.2c-.659,0-.986-.485-.784-.944a1.778,1.778,0,0,1,.21-.336q4.1-5.471,8.205-10.937a1.344,1.344,0,0,1,.468-.4.582.582,0,0,1,.715.18.614.614,0,0,1,.122.7,1.8,1.8,0,0,1-.206.338q-4.119,5.5-8.249,10.988a2.337,2.337,0,0,1-.481.4" transform="translate(-4.095 -3.409)" fill="#004990"/>
    <path id="Path_7501" data-name="Path 7501" d="M28.073,29.018a3.065,3.065,0,0,1,.816-2.136,1.733,1.733,0,0,1,2.559,0,3.5,3.5,0,0,1,.163,4.284A1.788,1.788,0,0,1,28.6,31a3.489,3.489,0,0,1-.528-1.987m2.909.1a8.384,8.384,0,0,0-.455-1.169c-.195-.345-.5-.317-.744,0a2.224,2.224,0,0,0,0,2.34c.253.329.561.347.764-.019a8.159,8.159,0,0,0,.437-1.155" transform="translate(-5.459 -5.118)" fill="#004990"/>
    <path id="Path_7502" data-name="Path 7502" d="M25.25,20.336A3.258,3.258,0,0,1,24.4,22.6a1.735,1.735,0,0,1-2.487.026,3.473,3.473,0,0,1-.147-4.4,1.773,1.773,0,0,1,2.94.232,3.656,3.656,0,0,1,.542,1.879m-2.933.015a8.573,8.573,0,0,0,.474,1.179c.193.334.471.309.721.01a2.2,2.2,0,0,0,0-2.392c-.248-.3-.532-.329-.722.006a8.738,8.738,0,0,0-.474,1.2" transform="translate(-4.093 -3.412)" fill="#004990"/>
    <path id="Path_7503" data-name="Path 7503" d="M17.144,28.814c0,.231.009.463,0,.694a.67.67,0,0,1-.6.671.629.629,0,0,1-.724-.566,10.1,10.1,0,0,1,.008-1.645.615.615,0,0,1,.707-.545.666.666,0,0,1,.612.663c.013.242,0,.485,0,.727" transform="translate(-3.069 -5.332)" fill="#004990"/>
    <path id="Path_7504" data-name="Path 7504" d="M17.143,21.782c0,.242.011.485,0,.727a.678.678,0,0,1-.62.661.632.632,0,0,1-.7-.557,10.287,10.287,0,0,1,.009-1.675.592.592,0,0,1,.717-.519.643.643,0,0,1,.594.637c.014.242,0,.484,0,.727" transform="translate(-3.07 -3.969)" fill="#004990"/>
  </g>
</svg>
