<svg xmlns="http://www.w3.org/2000/svg" width="30.9" height="30.904" viewBox="0 0 30.9 30.904">
    <g id="Page-1" transform="translate(0 0)">
        <g id="_019---Present" data-name="019---Present" transform="translate(0 0)">
            <g id="Icons_copy" transform="translate(16.829 5.152)">
                <path id="Path" d="M39.786,9.965a.957.957,0,0,1-.281.683L32.653,17.5a.968.968,0,0,1-1.368-1.369l6.85-6.848a.965.965,0,0,1,1.651.686Z" transform="translate(-30.957 -8.903)" fill="#fff" fill-rule="evenodd"/>
                <circle id="Oval" cx="1.22" cy="1.22" r="1.22" transform="translate(0 0)" fill="#fff"/>
                <circle id="Oval-2" data-name="Oval" cx="1.22" cy="1.22" r="1.22" transform="translate(6.485 6.485)" fill="#fff"/>
            </g>
            <g id="Icons_copy_2" transform="translate(0.488 0.488)">
                <path id="Path-2" data-name="Path" d="M.488,32.928H.976V43.176a.488.488,0,0,0,.488.488H2.928a.488.488,0,0,1-.488-.488V32.928H1.952a.488.488,0,0,1-.488-.488V30.488A.488.488,0,0,1,1.952,30H.488A.488.488,0,0,0,0,30.488V32.44A.488.488,0,0,0,.488,32.928Z" transform="translate(0 -13.736)" fill="#fff" fill-rule="evenodd"/>
                <path id="Path-3" data-name="Path" d="M10.464,23.2a2.189,2.189,0,0,1,1.464-2.061A2.17,2.17,0,0,0,11.2,21a2.2,2.2,0,0,0,0,4.392H12.66A2.2,2.2,0,0,1,10.464,23.2Z" transform="translate(-4.608 -10.056)" fill="#fff" fill-rule="evenodd"/>
                <path id="Path-4" data-name="Path" d="M22.829,10.382a2.167,2.167,0,0,1,.347-.1,2.112,2.112,0,0,1,.274-.028A8.728,8.728,0,0,1,31.368.037C31.124.017,30.883,0,30.636,0s-.488.017-.732.037a8.728,8.728,0,0,0-7.919,10.221,2.112,2.112,0,0,0-.274.028Z" transform="translate(-11.117)" fill="#fff" fill-rule="evenodd"/>
            </g>
            <g id="Icons" transform="translate(0 0)">
                <rect id="Rectangle" width="1.22" height="3.661" transform="translate(1.218 19.461)" fill="#fff"/>
                <path id="Path-5" data-name="Path" d="M2.505,40.976A.488.488,0,1,1,2.5,40h0a.488.488,0,1,1,0,.976Z" transform="translate(-1.032 -19.36)" fill-rule="evenodd"/>
                <path id="Shape" d="M.976,29.259H6.968a.983.983,0,0,0,.352.352v9.407H1.952V32.675a.488.488,0,1,0-.976,0v6.344a.976.976,0,0,0,.976.976h14.64a.976.976,0,0,0,.976-.976v-9.76a.976.976,0,0,0,.976-.976V26.331a.976.976,0,0,0-.976-.976H13.536a2.684,2.684,0,1,0-4.265-3.246,2.684,2.684,0,1,0-4.265,3.246H.976A.976.976,0,0,0,0,26.331v1.952A.976.976,0,0,0,.976,29.259Zm9.76-.49v0H7.808V25.843h2.928ZM8.3,39.019V29.747h1.952v9.272Zm8.3,0H11.224V29.611a.983.983,0,0,0,.352-.352h5.016Zm.976-10.736H11.712V26.331h5.856ZM7.076,21.939a1.708,1.708,0,0,1,1.708,1.708.488.488,0,0,0,.976,0,1.708,1.708,0,1,1,1.81,1.7.973.973,0,0,0-.834-.478H7.808a.973.973,0,0,0-.834.478,1.7,1.7,0,0,1,.1-3.406Zm-6.1,4.392H6.832v1.952H.976Z" transform="translate(0 -9.091)"/>
                <path id="Path-6" data-name="Path" d="M22.02,8.762a.488.488,0,0,0,.461.514.5.5,0,0,0,.514-.461,8.3,8.3,0,1,1,8.238,8.753.468.468,0,0,0-.464.488.509.509,0,0,0,.512.488A9.272,9.272,0,1,0,22.02,8.762Z" transform="translate(-9.65 0)" fill-rule="evenodd"/>
                <path id="Shape-2" data-name="Shape" d="M32.454,18.774a1.446,1.446,0,0,0,1.029-.426l6.851-6.85a1.464,1.464,0,0,0,0-2.058,1.492,1.492,0,0,0-2.058,0l-6.851,6.851a1.455,1.455,0,0,0,1.03,2.483Zm-.342-1.794,6.853-6.85a.48.48,0,0,1,.678.678l-6.85,6.849a.479.479,0,1,1-.678-.678Z" transform="translate(-14.247 -4.256)"/>
                <path id="Shape-3" data-name="Shape" d="M32.952,12.9A1.952,1.952,0,1,0,31,10.952,1.952,1.952,0,0,0,32.952,12.9Zm0-2.928a.976.976,0,1,1-.976.976A.976.976,0,0,1,32.952,9.976Z" transform="translate(-14.904 -4.327)"/>
                <path id="Shape-4" data-name="Shape" d="M44.952,21A1.952,1.952,0,1,0,46.9,22.952,1.952,1.952,0,0,0,44.952,21Zm0,2.928a.976.976,0,1,1,.976-.976A.976.976,0,0,1,44.952,23.928Z" transform="translate(-20.392 -10.096)"/>
                <path id="Path-7" data-name="Path" d="M6.488,51A.488.488,0,0,0,6,51.488v1.464a.488.488,0,0,0,.488.488H7.952a.488.488,0,1,0,0-.976H6.976v-.976A.488.488,0,0,0,6.488,51Z" transform="translate(-3.072 -24.488)" fill-rule="evenodd"/>
            </g>
        </g>
    </g>
</svg>
