<svg xmlns="http://www.w3.org/2000/svg" width="10.916" height="12.021" viewBox="0 0 10.916 12.021">
    <g id="trash" transform="translate(0.273 0.25)">
        <g id="Group_264" data-name="Group 264">
            <path id="Path_183" data-name="Path 183" d="M13.369,5.768C11.451,5.578,9.521,5.48,7.6,5.48a34.028,34.028,0,0,0-3.422.173L3,5.768" transform="translate(-3 -3.475)" fill="none" stroke="#ef3e42" stroke-linecap="round" stroke-linejoin="round" stroke-width="0.5"/>
            <path id="Path_184" data-name="Path 184" d="M8.5,3.711l.127-.755C8.719,2.409,8.788,2,9.762,2h1.509c.974,0,1.048.432,1.135.962l.127.749" transform="translate(-5.332 -2)" fill="none" stroke="#ef3e42" stroke-linecap="round" stroke-linejoin="round" stroke-width="0.5"/>
            <path id="Path_185" data-name="Path 185" d="M13.042,9.14l-.374,5.8c-.063.9-.115,1.607-1.722,1.607h-3.7c-1.607,0-1.659-.7-1.722-1.607L5.15,9.14" transform="translate(-3.911 -5.027)" fill="none" stroke="#ef3e42" stroke-linecap="round" stroke-linejoin="round" stroke-width="0.5"/>
            <path id="Path_186" data-name="Path 186" d="M10.33,16.5h1.918" transform="translate(-6.107 -8.147)" fill="none" stroke="#ef3e42" stroke-linecap="round" stroke-linejoin="round" stroke-width="0.5"/>
            <path id="Path_187" data-name="Path 187" d="M9.5,12.5h2.88" transform="translate(-5.756 -6.451)" fill="none" stroke="#ef3e42" stroke-linecap="round" stroke-linejoin="round" stroke-width="0.5"/>
        </g>
    </g>
</svg>
