<svg xmlns="http://www.w3.org/2000/svg" width="25.159" height="25.158" viewBox="0 0 25.159 25.158">
    <g id="rocket-2" transform="translate(1.237 -4.253)">
        <g id="Group_321" data-name="Group 321" transform="translate(-1.237 4.253)">
            <g id="Group_320" data-name="Group 320" transform="translate(0)">
                <g id="Layer_2" data-name="Layer 2">
                    <g id="Layer_1" data-name="Layer 1">
                        <g id="rocket">
                            <path id="Path_208" data-name="Path 208" d="M16.164,53.147a1.07,1.07,0,0,1-.755-1.821l1.6-1.591a1.066,1.066,0,1,1,1.51,1.506l-1.6,1.6A1.066,1.066,0,0,1,16.164,53.147Z" transform="translate(-8.549 -27.989)" fill="#b90044"/>
                            <path id="Path_209" data-name="Path 209" d="M1.064,38.143a1.066,1.066,0,0,1-.755-1.821l1.608-1.6a1.066,1.066,0,0,1,1.493,1.505L1.819,37.832A1.079,1.079,0,0,1,1.064,38.143Z" transform="translate(0.004 -19.532)" fill="#b90044"/>
                            <path id="Path_210" data-name="Path 210" d="M3.9,47.629a1.079,1.079,0,0,1-.755-.311,1.066,1.066,0,0,1,0-1.51l3.651-3.651A1.066,1.066,0,1,1,8.3,43.667L4.65,47.318A1.079,1.079,0,0,1,3.9,47.629Z" transform="translate(-1.599 -23.7)" fill="#b90044"/>
                            <path id="Path_211" data-name="Path 211" d="M34.542,42.865a.973.973,0,0,1-.269-.038,1.066,1.066,0,0,1-.759-.742l-1.561-5.638a1.066,1.066,0,0,1,2.056-.567l1.075,3.872,2.427-2.427-.853-4.406a1.066,1.066,0,1,1,2.09-.426l.981,4.96a1.07,1.07,0,0,1-.29.964l-4.124,4.12A1.053,1.053,0,0,1,34.542,42.865Z" transform="translate(-18.069 -17.92)" fill="#b90044"/>
                            <path id="Path_212" data-name="Path 212" d="M18.4,20.367a1.066,1.066,0,0,1-.755-.316l-6.257-6.261a1.053,1.053,0,0,1-.277-1.032C13.413,4.314,22.049-1.273,30.319.267a1.062,1.062,0,0,1,.853.853c1.54,8.27-4.052,16.9-12.492,19.209A1.066,1.066,0,0,1,18.4,20.367Zm-5.062-7.634L18.706,18.1C25.529,15.927,30.067,9.04,29.193,2.246c-6.8-.874-13.686,3.668-15.857,10.487Z" transform="translate(-6.267 -0.012)" fill="#b90044"/>
                            <path id="Path_213" data-name="Path 213" d="M7.189,15.886a1.1,1.1,0,0,1-.286-.038L1.269,14.283A1.066,1.066,0,0,1,.8,12.5L4.924,8.38a1.066,1.066,0,0,1,.96-.294l4.96.981a1.069,1.069,0,0,1-.426,2.094l-4.4-.853L3.6,12.717l3.872,1.075a1.066,1.066,0,0,1-.286,2.094Z" transform="translate(-0.274 -4.572)" fill="#b90044"/>
                            <path id="Path_214" data-name="Path 214" d="M33.516,19.114a3.288,3.288,0,0,1-2.35-.972,3.315,3.315,0,1,1,2.35.972ZM35.115,17.387Zm-1.6-2.789a1.19,1.19,0,0,0-.853,2.034,1.224,1.224,0,0,0,1.706,0,1.19,1.19,0,0,0-.853-2.034Z" transform="translate(-17.09 -7.058)" fill="#b90044"/>
                        </g>
                    </g>
                </g>
            </g>
        </g>
    </g>
</svg>
