<svg xmlns="http://www.w3.org/2000/svg" width="21.188" height="20.255" viewBox="0 0 21.188 20.255">
  <g id="offer-9678" transform="translate(0.003 -5.569)">
    <path id="Path_6508" data-name="Path 6508" d="M11.057,6.662l2.016-.985a1.06,1.06,0,0,1,1.4.455l1.052,1.982a1.06,1.06,0,0,0,.753.547l2.21.388a1.06,1.06,0,0,1,.866,1.192l-.314,2.221a1.059,1.059,0,0,0,.288.885l1.56,1.612a1.06,1.06,0,0,1,0,1.473l-1.56,1.612a1.06,1.06,0,0,0-.288.885l.314,2.221a1.06,1.06,0,0,1-.866,1.192l-2.21.388a1.059,1.059,0,0,0-.753.547l-1.052,1.982a1.06,1.06,0,0,1-1.4.455l-2.016-.985a1.059,1.059,0,0,0-.931,0l-2.016.985a1.06,1.06,0,0,1-1.4-.455L5.657,23.279a1.06,1.06,0,0,0-.753-.547l-2.21-.388a1.06,1.06,0,0,1-.866-1.192l.314-2.221a1.059,1.059,0,0,0-.288-.885L.3,16.433a1.06,1.06,0,0,1,0-1.473l1.56-1.612a1.06,1.06,0,0,0,.288-.885l-.314-2.221a1.06,1.06,0,0,1,.866-1.192L4.9,8.661a1.059,1.059,0,0,0,.753-.547L6.709,6.132a1.06,1.06,0,0,1,1.4-.455l2.016.985A1.061,1.061,0,0,0,11.057,6.662Z" transform="translate(0)" fill="#d82323"/>
    <path id="Path_6509" data-name="Path 6509" d="M72.586,76.007a2.05,2.05,0,1,1,2.05-2.05A2.052,2.052,0,0,1,72.586,76.007Zm0-3.158a1.108,1.108,0,1,0,1.108,1.108A1.109,1.109,0,0,0,72.586,72.85Z" transform="translate(-64.63 -60.781)" fill="#fff"/>
    <path id="Path_6510" data-name="Path 6510" d="M76.5,81.048a.471.471,0,0,1-.347-.789l7.507-8.2a.471.471,0,1,1,.694.636l-7.507,8.2A.47.47,0,0,1,76.5,81.048Z" transform="translate(-69.662 -60.782)" fill="#fff"/>
    <path id="Path_6511" data-name="Path 6511" d="M138.228,136.158a2.05,2.05,0,1,1,2.05-2.05A2.052,2.052,0,0,1,138.228,136.158Zm0-3.158a1.108,1.108,0,1,0,1.108,1.108A1.109,1.109,0,0,0,138.228,133Z" transform="translate(-124.772 -115.893)" fill="#fff"/>
  </g>
</svg>
