<svg xmlns="http://www.w3.org/2000/svg" width="14.057" height="13.667" viewBox="0 0 14.057 13.667">
    <g id="edit-246" transform="translate(-134.2 -129.001)">
        <path id="Path_6499" data-name="Path 6499" d="M146.658,164.505a2.654,2.654,0,0,1-2.651,2.651h-6.4a2.654,2.654,0,0,1-2.651-2.651v-6.4a2.654,2.654,0,0,1,2.651-2.651h2.313V154.7h-2.313a3.415,3.415,0,0,0-3.409,3.409V164.5a3.415,3.415,0,0,0,3.409,3.409H144a3.415,3.415,0,0,0,3.409-3.409v-2.31h-.76v2.31Z" transform="translate(0 -25.243)" fill="#00488f"/>
        <path id="Path_6500" data-name="Path 6500" d="M272.79,129.613a2.092,2.092,0,0,0-2.957,0l-7.323,7.323a1.954,1.954,0,0,0-.555,1.112l-.338,2.363a.332.332,0,0,0,.328.379l.048,0,2.363-.338a1.965,1.965,0,0,0,1.112-.555l7.323-7.323A2.091,2.091,0,0,0,272.79,129.613Zm-9.39,7.508,6.2-6.2,1.881,1.883-6.2,6.2Zm.849,2.575-1.8.256.256-1.8a1.218,1.218,0,0,1,.176-.475l1.84,1.84a1.161,1.161,0,0,1-.474.177Zm8-7.664-.237.237-1.881-1.883.237-.237a1.331,1.331,0,1,1,1.881,1.883Z" transform="translate(-125.146)" fill="#00488f"/>
    </g>
</svg>
