<svg xmlns="http://www.w3.org/2000/svg" xmlns:xlink="http://www.w3.org/1999/xlink" width="69.457" height="56.936" viewBox="0 0 69.457 56.936">
  <defs>
    <clipPath id="clip-path">
      <rect id="Rectangle_3795" data-name="Rectangle 3795" width="69.457" height="56.936" fill="none"/>
    </clipPath>
  </defs>
  <g id="Group_5144" data-name="Group 5144" transform="translate(0 0)">
    <g id="Group_5143" data-name="Group 5143" transform="translate(0 0)" clip-path="url(#clip-path)">
      <path id="Path_7618" data-name="Path 7618" d="M18.815,0a7.5,7.5,0,0,1,5.969,2.988l2.243,2.983a3.819,3.819,0,0,0,3.026,1.511h6.965c9.508,0,13.933,4.872,13.933,15.332l-.067,12.228c0,9.768-6.073,15.839-15.846,15.839H15.872C6.08,50.882,0,44.809,0,35.036v-19.2C0,5.327,4.675,0,13.891,0Zm0,3.692H13.89c-7.144,0-10.2,3.633-10.2,12.144v19.2c0,7.838,4.329,12.154,12.185,12.154h19.15c7.838,0,12.154-4.313,12.154-12.154l.069-12.223c0-8.367-2.871-11.63-10.243-11.63H30.048A7.518,7.518,0,0,1,24.075,8.2L21.833,5.212A3.8,3.8,0,0,0,18.8,3.692ZM36.23,30.065a1.846,1.846,0,0,1,0,3.692H14.721a1.846,1.846,0,0,1,0-3.692H36.23Z" transform="translate(0 0)" fill="#003b82" fill-rule="evenodd"/>
      <path id="Path_7619" data-name="Path 7619" d="M42.686,14.525a47.418,47.418,0,0,1,4.26,2.914,15.025,15.025,0,0,1,4.82,8.518c.11.5.209,1,.313,1.5v3.326c-.245.9-.486,1.794-.736,2.69a14.9,14.9,0,0,1-3.29,5.981,15.749,15.749,0,0,1-8.724,5.017,14.624,14.624,0,0,1-7.988-.52,16.671,16.671,0,0,1-7.022-4.727,24.737,24.737,0,0,1-1.61-2.237c-.433-.982-.915-1.945-1.291-2.947a14.865,14.865,0,0,1-.523-8.356,15.049,15.049,0,0,1,.392-1.516,16.059,16.059,0,0,1,8.649-9.554,14.947,14.947,0,0,1,8.772-1.081c1.343.221,2.652.654,3.977.99M36.35,30.842c1.542,1.553,3.01,3.037,4.487,4.513a1.456,1.456,0,0,0,1.949.146,1.309,1.309,0,0,0-.15-1.985q-1.95-1.953-3.9-3.9c-.2-.206-.4-.421-.552-.579,1.247-1.257,2.437-2.447,3.617-3.649a6.369,6.369,0,0,0,1.129-1.294,1.47,1.47,0,0,0,.062-1.236,1.53,1.53,0,0,0-1.126-.66,2.022,2.022,0,0,0-1.206.632c-1.463,1.422-2.882,2.888-4.356,4.38-1.566-1.572-3.067-3.091-4.582-4.6a1.249,1.249,0,0,0-1.855-.11,1.151,1.151,0,0,0,0,1.884c.787.816,1.594,1.61,2.4,2.41.726.723,1.459,1.441,2.215,2.188-1.561,1.559-3.042,3.032-4.516,4.515-.875.88-.683,2.045.469,2.308a2,2,0,0,0,1.486-.574c1.49-1.388,2.9-2.861,4.427-4.387" transform="translate(17.377 12.132)" fill="#ed7161"/>
      <path id="Path_7620" data-name="Path 7620" d="M33.036,27.534c-1.524,1.526-2.936,3-4.427,4.387a2,2,0,0,1-1.486.574c-1.151-.262-1.343-1.428-.469-2.308,1.474-1.482,2.955-2.955,4.516-4.515-.756-.747-1.489-1.465-2.215-2.188-.8-.8-1.612-1.594-2.4-2.41a1.151,1.151,0,0,1,0-1.884,1.249,1.249,0,0,1,1.855.11c1.514,1.508,3.016,3.027,4.582,4.6,1.474-1.492,2.893-2.959,4.356-4.38a2.022,2.022,0,0,1,1.206-.632,1.53,1.53,0,0,1,1.126.66,1.47,1.47,0,0,1-.062,1.236,6.369,6.369,0,0,1-1.129,1.294c-1.18,1.2-2.37,2.392-3.617,3.649.15.158.347.373.552.579q1.95,1.953,3.9,3.9a1.309,1.309,0,0,1,.15,1.985,1.456,1.456,0,0,1-1.949-.146c-1.478-1.476-2.946-2.96-4.487-4.513" transform="translate(20.692 15.44)" fill="#fffdfd"/>
    </g>
  </g>
</svg>
