<svg xmlns="http://www.w3.org/2000/svg" width="50.369" height="59.641" viewBox="0 0 50.369 59.641">
  <g id="Group_6640" data-name="Group 6640" transform="translate(-161.688 -311.011)">
    <path id="Path_8937" data-name="Path 8937" d="M90.635,119.992c0,.964-.461,1.746-1.03,1.746s-1.03-.782-1.03-1.746.461-1.746,1.03-1.746,1.03.782,1.03,1.746" transform="translate(89.157 213.882)" fill="#003b82"/>
    <path id="Path_8938" data-name="Path 8938" d="M86.689,119.3c-.846,0-1.509-.977-1.509-2.225s.663-2.225,1.509-2.225,1.509.977,1.509,2.225-.663,2.225-1.509,2.225m0-3.492c-.194,0-.552.481-.552,1.267s.357,1.267.552,1.267.552-.481.552-1.267-.357-1.267-.552-1.267" transform="translate(92.073 216.798)" fill="#003b82"/>
    <path id="Path_8939" data-name="Path 8939" d="M199.541,119.992c0,.964-.461,1.746-1.03,1.746s-1.03-.782-1.03-1.746.461-1.746,1.03-1.746,1.03.782,1.03,1.746" transform="translate(-4.39 213.882)" fill="#003b82"/>
    <path id="Path_8940" data-name="Path 8940" d="M195.6,119.3c-.846,0-1.509-.977-1.509-2.225s.663-2.225,1.509-2.225,1.509.977,1.509,2.225-.663,2.225-1.509,2.225m0-3.492c-.194,0-.552.481-.552,1.267s.357,1.267.552,1.267.552-.481.552-1.267-.357-1.267-.552-1.267" transform="translate(-1.476 216.798)" fill="#003b82"/>
    <path id="Path_8941" data-name="Path 8941" d="M86.45,212.054a.718.718,0,0,1-.622-.359,12.97,12.97,0,0,0-22.153-.509.718.718,0,0,1-1.209-.775,14.4,14.4,0,0,1,24.605.565.718.718,0,0,1-.621,1.078" transform="translate(111.682 140.414)" fill="#003b82"/>
    <path id="Path_8943" data-name="Path 8943" d="M11392.954-6137.839v-50.881a3.84,3.84,0,0,1,.535-2.073,2.77,2.77,0,0,1,2.439-1c2.387.186,34.669,0,34.669,0l9.346,9.6-.168,44.072a3.786,3.786,0,0,1-.361,1.373,2.207,2.207,0,0,1-1.729,1.052c-1.095-.061-42.657,0-42.657,0a2.528,2.528,0,0,1-1.521-.724A2.374,2.374,0,0,1,11392.954-6137.839Z" transform="translate(-11230.006 6505.094)" fill="none" stroke="#003b82" stroke-width="2.5"/>
    <g id="Polygon_28" data-name="Polygon 28" transform="matrix(-0.695, -0.719, 0.719, -0.695, 205.007, 330.115)" fill="#fff">
      <path d="M 14.89515209197998 8.800726890563965 L 2.198931932449341 8.800726890563965 C 2.198931932449341 8.800724983215332 2.198930740356445 8.800722122192383 2.198929786682129 8.80072021484375 C 2.198930263519287 8.800719261169434 2.198931217193604 8.800718307495117 2.198931932449341 8.800717353820801 L 8.547041893005371 1.521477222442627 L 14.89515209197998 8.800726890563965 C 14.89515113830566 8.800726890563965 14.89515113830566 8.800726890563965 14.89515113830566 8.800726890563965 L 14.89515209197998 8.800726890563965 Z" stroke="none"/>
      <path d="M 8.547040939331055 3.04294490814209 L 4.397861480712891 7.800726890563965 L 12.69622325897217 7.800726890563965 L 8.547040939331055 3.04294490814209 M 8.547040939331055 0.5214748382568359 C 8.824239730834961 0.5214748382568359 9.101436614990234 0.6357221603393555 9.300702095031738 0.8642168045043945 L 15.64882183074951 8.143466949462891 C 16.21299171447754 8.790397644042969 15.75353240966797 9.800726890563965 14.89515209197998 9.800726890563965 L 2.198931694030762 9.800726890563965 C 1.34055233001709 9.800726890563965 0.8810920715332031 8.790397644042969 1.44526195526123 8.143466949462891 L 7.79337215423584 0.8642168045043945 C 7.992641448974609 0.6357221603393555 8.269842147827148 0.5214748382568359 8.547040939331055 0.5214748382568359 Z" stroke="none" fill="#003b82"/>
    </g>
  </g>
</svg>
