<svg xmlns="http://www.w3.org/2000/svg" width="21.943" height="26.456" viewBox="0 0 21.943 26.456">
    <g id="location-cross" transform="translate(145.875 104)">
        <g id="Group_366" data-name="Group 366" transform="translate(-145.875 -104)">
            <path id="Path_221" data-name="Path 221" d="M24.759,10.286A10.645,10.645,0,0,0,14.1,2h-.012A10.652,10.652,0,0,0,3.439,10.273c-1.459,6.381,2.449,11.786,5.986,15.2,1.254,1.213,2.955,2.984,4.7,2.984,1.682,0,3.339-1.723,4.638-2.984C22.3,22.059,26.206,16.667,24.759,10.286Zm-7.531,5.924a.926.926,0,0,1-1.311,0l-1.793-1.793-1.843,1.843a.926.926,0,0,1-1.311,0,.932.932,0,0,1,0-1.311l1.843-1.843L11.02,11.312A.927.927,0,0,1,12.331,10l1.793,1.793,1.731-1.731a.927.927,0,0,1,1.311,1.311l-1.731,1.731L17.228,14.9a.933.933,0,0,1,0,1.311Z" transform="translate(-3.125 -2)" fill="#fff"/>
        </g>
    </g>
</svg>
