<svg id="Group_5945" data-name="Group 5945" xmlns="http://www.w3.org/2000/svg" xmlns:xlink="http://www.w3.org/1999/xlink" width="4.558" height="14.497" viewBox="0 0 4.558 14.497">
  <defs>
    <clipPath id="clip-path">
      <rect id="Rectangle_4074" data-name="Rectangle 4074" width="4.558" height="14.497" fill="#ff1c3d"/>
    </clipPath>
  </defs>
  <g id="Group_5824" data-name="Group 5824" clip-path="url(#clip-path)">
    <path id="Path_8224" data-name="Path 8224" d="M7.5,243.562a.715.715,0,0,1-.485-.5.5.5,0,0,1-.021-.1c0-.788,0-1.575,0-2.363a.652.652,0,0,1,.626-.655c.877-.007,1.755-.016,2.632,0a.653.653,0,0,1,.7.724c.013.721.005,1.443,0,2.165a.732.732,0,0,1-.534.73Z" transform="translate(-6.678 -229.065)" fill="#ff1c3d"/>
    <path id="Path_8225" data-name="Path 8225" d="M2.251,0c.538,0,1.075,0,1.613,0A.675.675,0,0,1,4.5.351a.321.321,0,0,1,.061.136c0,.277-.011.553-.018.83,0,.028-.006.056-.007.083-.01.441-.016.883-.029,1.324-.016.538-.037,1.076-.057,1.614q-.014.379-.028.758-.028.779-.057,1.558c-.009.257-.017.515-.029.772-.018.4-.021.8-.061,1.2a.667.667,0,0,1-.693.6c-.887.006-1.773,0-2.66,0a.713.713,0,0,1-.6-.507,1.43,1.43,0,0,1-.03-.275c-.012-.333-.019-.665-.029-1C.251,7.208.241,6.965.232,6.722Q.2,5.908.174,5.094C.165,4.851.155,4.608.146,4.365Q.117,3.586.09,2.807c-.01-.267-.018-.533-.029-.8C.043,1.573.03,1.138,0,.7A.667.667,0,0,1,.709,0c.514.015,1.028,0,1.542,0" transform="translate(0 0)" fill="#ff1c3d"/>
  </g>
</svg>
