<svg xmlns="http://www.w3.org/2000/svg" width="11.406" height="13.174" viewBox="0 0 11.406 13.174">
    <g id="location" transform="translate(-3.121 -1.75)">
        <g id="Group_360" data-name="Group 360" transform="translate(3.121 1.75)">
            <path id="Path_219" data-name="Path 219" d="M14.367,6.056A5.543,5.543,0,0,0,8.827,1.75H8.821a5.542,5.542,0,0,0-5.539,4.3C2.53,9.365,4.56,12.173,6.4,13.94a3.484,3.484,0,0,0,4.852,0c1.838-1.767,3.869-4.569,3.117-7.885ZM8.827,9.275a2.024,2.024,0,1,1,2.024-2.024A2.024,2.024,0,0,1,8.827,9.275Z" transform="translate(-3.121 -1.75)" fill="#ef3e42"/>
        </g>
    </g>
</svg>
