<svg id="Iconly_Light-Outline_Folder" data-name="Iconly/Light-Outline/Folder" xmlns="http://www.w3.org/2000/svg" width="26.502" height="26.468" viewBox="0 0 26.502 26.468">
    <g id="Folder">
        <path id="Combined-Shape" d="M9.787,0a3.9,3.9,0,0,1,3.105,1.555l1.165,1.552a1.987,1.987,0,0,0,1.574.786h3.623c4.945,0,7.248,2.534,7.248,7.975l-.035,6.361c0,5.081-3.159,8.239-8.243,8.239H8.26C3.166,26.468,0,23.309,0,18.225V8.238C0,2.771,2.432,0,7.226,0Zm0,1.921H7.225c-3.716,0-5.3,1.89-5.3,6.317v9.987c0,4.077,2.251,6.322,6.339,6.322h9.965c4.077,0,6.322-2.245,6.322-6.322v0l.036-6.358c0-4.353-1.493-6.049-5.328-6.049H15.63a3.91,3.91,0,0,1-3.107-1.552L11.355,2.707a1.971,1.971,0,0,0-1.569-.786Zm9.059,13.719a.96.96,0,1,1,0,1.921H7.658a.96.96,0,1,1,0-1.921H18.843Z" fill="#f78f1e" fill-rule="evenodd"/>
    </g>
</svg>
