<svg xmlns="http://www.w3.org/2000/svg" width="32.953" height="22.081" viewBox="0 0 32.953 22.081">
    <g id="Group_4994" data-name="Group 4994" transform="translate(-1.774 -5.359)">
        <g id="Group_4988" data-name="Group 4988">
            <path id="Path_7509" data-name="Path 7509" d="M33.218,50.511c4.066,0,8.132-.008,12.2,0a4.118,4.118,0,0,1,4.188,3.41,4.762,4.762,0,0,1,.062.9q.006,6.764,0,13.528a4.116,4.116,0,0,1-4.22,4.233q-12.251.014-24.5,0a4.109,4.109,0,0,1-4.225-4.225q-.008-6.764,0-13.528a4.129,4.129,0,0,1,4.351-4.316q6.072-.005,12.145,0M33.195,71.3q6.048,0,12.1,0a2.882,2.882,0,0,0,3.095-3.072q.007-6.661,0-13.321a2.883,2.883,0,0,0-3.121-3.1H21.126A2.886,2.886,0,0,0,18,54.9Q18,61.536,18,68.17A2.891,2.891,0,0,0,21.151,71.3q6.022,0,12.043,0" transform="translate(-14.944 -45.149)" fill="#bbb"/>
            <path id="Path_7514" data-name="Path 7514" d="M53.82,166.815H44.027a4.8,4.8,0,0,1,2.229-3.938,4.65,4.65,0,0,1,5.112-.187,4.867,4.867,0,0,1,2.452,4.126" transform="translate(-39.355 -144.822)" fill="#bbb"/>
            <path id="Path_7515" data-name="Path 7515" d="M63.569,104.552a2.872,2.872,0,0,1,2.892-2.838,2.9,2.9,0,1,1-.067,5.793,2.866,2.866,0,0,1-2.825-2.956" transform="translate(-56.823 -90.922)" fill="#bbb"/>
            <path id="Path_7516" data-name="Path 7516" d="M185.346,105.731q-2.727,0-5.455,0c-.652,0-.955-.215-.943-.659.011-.429.306-.638.917-.638q5.508,0,11.016,0c.071,0,.141,0,.212,0,.41.02.692.22.7.64,0,.449-.282.657-.724.657h-5.72" transform="translate(-159.96 -93.351)" fill="#bbb"/>
            <path id="Path_7517" data-name="Path 7517" d="M185.4,192.435q2.754,0,5.507,0c.6,0,.9.228.89.661-.011.409-.31.635-.869.636q-5.56,0-11.121,0c-.564,0-.854-.225-.861-.641s.28-.653.841-.654q2.807-.006,5.613,0" transform="translate(-159.961 -172.016)" fill="#bbb"/>
            <path id="Path_7518" data-name="Path 7518" d="M185.733,135.051h-5.459c-.159,0-.361.053-.467-.024-.208-.149-.49-.365-.5-.568s.229-.472.427-.626c.126-.1.373-.054.566-.055q5.379,0,10.758,0c.141,0,.284-.007.424.007a.61.61,0,0,1,.628.649.593.593,0,0,1-.651.618c-.477,0-.954,0-1.431,0h-4.293" transform="translate(-160.279 -119.575)" fill="#bbb"/>
            <path id="Path_7519" data-name="Path 7519" d="M185.427,163.247q2.756,0,5.512,0c.56,0,.864.227.864.629s-.311.645-.86.646q-5.565,0-11.13,0c-.554,0-.862-.239-.862-.641s.294-.633.858-.633q2.809,0,5.618,0" transform="translate(-159.963 -145.925)" fill="#bbb"/>
        </g>
    </g>
</svg>
