<svg xmlns="http://www.w3.org/2000/svg" xmlns:xlink="http://www.w3.org/1999/xlink" width="35.285" height="44.992" viewBox="0 0 35.285 44.992">
  <defs>
    <clipPath id="clip-path">
      <rect id="Rectangle_4167" data-name="Rectangle 4167" width="20.191" height="30.251" fill="#e55"/>
    </clipPath>
  </defs>
  <g id="Group_6019" data-name="Group 6019" transform="translate(-8.112 -270.98)">
    <g id="Group_6002" data-name="Group 6002" transform="translate(15.659 270.98)">
      <g id="Group_5993" data-name="Group 5993" transform="translate(0 0)" clip-path="url(#clip-path)">
        <path id="Path_8309" data-name="Path 8309" d="M20.191,10.095c0,8.69-6.877,15.27-9.279,17.3a1.263,1.263,0,0,1-1.633,0C6.877,25.364,0,18.785,0,10.095a10.1,10.1,0,1,1,20.191,0" transform="translate(0 0.001)" fill="#e55"/>
        <path id="Path_8311" data-name="Path 8311" d="M127.421,833.982c0,1.273-2.922,2.3-6.527,2.3s-6.527-1.031-6.527-2.3c0-.845,1.291-1.584,3.215-1.985.824.838,1.553,1.49,2.075,1.933a1.913,1.913,0,0,0,2.472,0c.523-.442,1.252-1.094,2.076-1.933,1.924.4,3.215,1.14,3.215,1.985" transform="translate(-110.798 -806.035)" fill="#e55"/>
      </g>
    </g>
    <g id="Group_6003" data-name="Group 6003" transform="translate(8.112 280.688)">
      <circle id="Ellipse_511" data-name="Ellipse 511" cx="17.643" cy="17.643" r="17.643" transform="translate(0 0)" fill="#e55" opacity="0.15"/>
      <circle id="Ellipse_512" data-name="Ellipse 512" cx="14.702" cy="14.702" r="14.702" transform="translate(2.94 2.94)" fill="#e55" opacity="0.26"/>
    </g>
  </g>
</svg>
