<svg xmlns="http://www.w3.org/2000/svg" xmlns:xlink="http://www.w3.org/1999/xlink" width="22.825" height="18.302" viewBox="0 0 22.825 18.302">
  <defs>
    <clipPath id="clip-path">
      <path id="Path_7385" data-name="Path 7385" d="M0,0H22.825V18.3H0Z" transform="translate(0 0.671)" fill="none"/>
    </clipPath>
  </defs>
  <g id="Group_4864" data-name="Group 4864" transform="translate(0 -0.671)">
    <g id="Mask_Group_4603" data-name="Mask Group 4603" clip-path="url(#clip-path)">
      <path id="Path_7374" data-name="Path 7374" d="M.005,69.709c0-1.173.007-2.345,0-3.518,0-.341.111-.5.466-.48.4.019.811-.036,1.2.021a2.467,2.467,0,0,1,.681.339c.118.06.239.166.358.165.452,0,.86.03,1.03.556.017.052.185.085.279.077.535-.043,1.068-.1,1.6-.155a8.126,8.126,0,0,1,3.951.5q2.685,1.067,5.351,2.182a1.271,1.271,0,0,1,.533.42.358.358,0,0,0,.476.163c1.653-.471,3.306-.941,4.968-1.381a2.3,2.3,0,0,1,1.034-.038,1.218,1.218,0,0,1,.887,1.135,1.3,1.3,0,0,1-.77,1.3c-1.4.685-2.809,1.361-4.214,2.041-.867.42-1.732.844-2.6,1.261a3.83,3.83,0,0,1-3.225.1c-1.695-.687-3.4-1.352-5.079-2.075a4.194,4.194,0,0,0-3-.077.377.377,0,0,0-.191.25.7.7,0,0,1-.812.658c-.268,0-.5-.014-.682.286a.815.815,0,0,1-.569.247c-.4.037-.8,0-1.206.016C.13,73.713,0,73.576,0,73.227c.012-1.172,0-2.345,0-3.518m3.738,2.009c.2-.038.329-.054.456-.091a4.369,4.369,0,0,1,3.03.244c1.66.707,3.339,1.369,5.009,2.051a3.109,3.109,0,0,0,2.594-.024c2.335-1.109,4.658-2.244,6.982-3.375a.792.792,0,0,0-.543-1.486q-2.68.737-5.352,1.5a.457.457,0,0,0-.26.246,1.208,1.208,0,0,1-1.62.823q-2-.6-3.988-1.215c-.081-.025-.187-.035-.235-.092-.069-.082-.15-.216-.126-.3a.36.36,0,0,1,.268-.172.95.95,0,0,1,.352.084c1.27.391,2.538.786,3.808,1.175.51.156.868.016,1-.378s-.056-.7-.53-.895c-1.671-.682-3.337-1.374-5.016-2.035a10.8,10.8,0,0,0-1.577-.457,12.964,12.964,0,0,0-4.039.1c-.078.007-.2.193-.2.3-.019.671-.01,1.343-.01,2.015v1.985M.549,73.16c.333,0,.626-.021.913.005.38.035.475-.125.472-.485-.015-1.805-.007-3.611-.007-5.416,0-1.034,0-1.021-1.02-1.031-.315,0-.383.1-.381.4.011,2.049.006,4.1.006,6.148,0,.108.009.217.016.381M2.472,72.6c.732.1.751.083.751-.621,0-1.6-.007-3.2.005-4.795,0-.317-.1-.46-.418-.421-.106.013-.213.015-.338.023Z" transform="translate(0 -57.68)" fill="#52555b"/>
      <path id="Path_7375" data-name="Path 7375" d="M85.819,9.094a4.547,4.547,0,1,1,4.556-4.528,4.542,4.542,0,0,1-4.556,4.528m4.023-4.531A4.021,4.021,0,1,0,85.8,8.571a4.026,4.026,0,0,0,4.039-4.009" transform="translate(-71.353 0.671)" fill="#52555b"/>
      <path id="Path_7376" data-name="Path 7376" d="M69.746,46.8c-.147-.128-.248-.175-.276-.251a.311.311,0,0,1,.033-.265,5.306,5.306,0,0,1,.563-.565.3.3,0,0,1,.263-.031c.071.033.165.19.147.215-.224.3-.467.581-.73.9" transform="translate(-60.971 -39.417)" fill="#52555b"/>
      <path id="Path_7377" data-name="Path 7377" d="M70.371,21.163c-.13.051-.321.182-.379.138a3.645,3.645,0,0,1-.67-.651c-.122-.154.093-.445.24-.35a7.7,7.7,0,0,1,.83.706l-.02.156" transform="translate(-60.822 -17.134)" fill="#52555b"/>
      <path id="Path_7378" data-name="Path 7378" d="M160.519,20.774c-.312.259-.594.5-.889.723-.024.018-.174-.061-.192-.119a.367.367,0,0,1,.021-.3,4.747,4.747,0,0,1,.559-.564.3.3,0,0,1,.262-.029c.073.03.117.132.24.284" transform="translate(-139.945 -17.301)" fill="#52555b"/>
      <path id="Path_7379" data-name="Path 7379" d="M164.14,35.595a1.209,1.209,0,0,1-.394-.01.349.349,0,0,1-.206-.246.322.322,0,0,1,.208-.239,3.786,3.786,0,0,1,.83,0,.32.32,0,0,1,.2.242.342.342,0,0,1-.207.242,1.475,1.475,0,0,1-.431.01" transform="translate(-143.565 -30.122)" fill="#52555b"/>
      <path id="Path_7380" data-name="Path 7380" d="M159.886,46.692a7.008,7.008,0,0,1-.692-.879c-.086-.15.214-.32.378-.186a3.94,3.94,0,0,1,.593.594c.132.166,0,.4-.278.471" transform="translate(-139.736 -39.336)" fill="#52555b"/>
      <path id="Path_7381" data-name="Path 7381" d="M63.984,35.614a1.278,1.278,0,0,1-.4-.01.355.355,0,0,1-.217-.236.319.319,0,0,1,.194-.248,3.814,3.814,0,0,1,.835,0,.317.317,0,0,1,.194.245.351.351,0,0,1-.211.239,1.283,1.283,0,0,1-.4.011" transform="translate(-55.629 -30.139)" fill="#52555b"/>
      <path id="Path_7382" data-name="Path 7382" d="M8.767,116.638c-.167.12-.268.247-.356.24s-.237-.149-.237-.23A.337.337,0,0,1,8.4,116.4c.088-.011.193.117.365.234" transform="translate(-7.176 -102.185)" fill="#52555b"/>
      <path id="Path_7383" data-name="Path 7383" d="M94.388,9.659a3.37,3.37,0,1,1-3.414,3.3,3.369,3.369,0,0,1,3.414-3.3m-.079,6.205A2.838,2.838,0,1,0,91.491,13a2.832,2.832,0,0,0,2.819,2.864" transform="translate(-79.861 -7.808)" fill="#52555b"/>
      <path id="Path_7384" data-name="Path 7384" d="M105.03,24.205a6.827,6.827,0,0,1-.618-.319.465.465,0,0,0-.569,0,2.888,2.888,0,0,1-.516.272c-.331.134-.652-.081-.556-.415a1.269,1.269,0,0,0-.482-1.521c-.3-.229-.157-.585.211-.679a.127.127,0,0,1,.036-.006,1.123,1.123,0,0,0,1.229-.885.454.454,0,0,1,.348-.253.5.5,0,0,1,.38.262,1.186,1.186,0,0,0,1.235.892c.395.017.5.387.241.691a.264.264,0,0,1-.051.052,1.069,1.069,0,0,0-.44,1.345.408.408,0,0,1-.449.562m.359-2.14a1.221,1.221,0,0,1-1.259-.942,1.222,1.222,0,0,1-1.283.94,1.163,1.163,0,0,1,.516,1.481,1.171,1.171,0,0,1,1.559-.017,1.122,1.122,0,0,1,.467-1.462" transform="translate(-89.655 -17.239)" fill="#52555b"/>
    </g>
  </g>
</svg>
