<svg xmlns="http://www.w3.org/2000/svg" width="34.958" height="30.074" viewBox="0 0 34.958 30.074">
    <g id="Group_4340" data-name="Group 4340" transform="translate(-36.666 -138.923)">
        <g id="_1" data-name="1" transform="translate(36.666 138.923)">
            <g id="Group_181" data-name="Group 181" transform="translate(0 0)">
                <path id="Path_234" data-name="Path 234" d="M.25,3.407A1.141,1.141,0,0,1,1.374,2.25H5.086A4.141,4.141,0,0,1,9.059,5.364l.82,3.055H31.087a4.083,4.083,0,0,1,3.3,1.7,4.341,4.341,0,0,1,.654,3.738l-2.086,7.3a4.163,4.163,0,0,1-3.276,2.987L16.212,26.452a4.12,4.12,0,0,1-4.65-3.054L6.892,5.978A1.883,1.883,0,0,0,5.086,4.562H1.374A1.141,1.141,0,0,1,.25,3.407ZM10.5,10.732l3.231,12.05a1.873,1.873,0,0,0,2.113,1.388l13.467-2.309A1.892,1.892,0,0,0,30.8,20.5l2.086-7.3a1.973,1.973,0,0,0-.3-1.7,1.856,1.856,0,0,0-1.5-.773Zm3.24,20.435a1.141,1.141,0,0,1,1.124-1.157h1.5a1.157,1.157,0,0,1,0,2.313h-1.5A1.141,1.141,0,0,1,13.738,31.167Zm11.989,0A1.141,1.141,0,0,1,26.85,30.01h1.5a1.157,1.157,0,0,1,0,2.313h-1.5A1.141,1.141,0,0,1,25.727,31.167Z" transform="translate(-0.25 -2.25)" fill="#00488f" fill-rule="evenodd"/>
            </g>
        </g>
    </g>
</svg>