<svg id="Group_4393" data-name="Group 4393" xmlns="http://www.w3.org/2000/svg" xmlns:xlink="http://www.w3.org/1999/xlink" width="13.37" height="12.013" viewBox="0 0 13.37 12.013">
  <defs>
    <clipPath id="clip-path">
      <rect id="Rectangle_2301" data-name="Rectangle 2301" width="13.37" height="12.013" fill="#888"/>
    </clipPath>
  </defs>
  <g id="Group_3140" data-name="Group 3140" transform="translate(0 0)" clip-path="url(#clip-path)">
    <path id="Path_6467" data-name="Path 6467" d="M38.707,2.121h.321c.157,0,.29-.071.29-.156V1.092A.194.194,0,0,1,39.509.9H42.3a.194.194,0,0,1,.191.191v.883c0,.078.136.147.29.147h.321c.154,0,.29-.068.29-.147V1.092A1.093,1.093,0,0,0,42.3,0H39.509a1.093,1.093,0,0,0-1.092,1.092v.859c0,.092.133.17.29.17" transform="translate(-34.222)" fill="#888"/>
    <path id="Path_6468" data-name="Path 6468" d="M54.8,68.721h.883a.29.29,0,0,0,.29-.29V68.1a.29.29,0,0,0-.29-.29H54.8a.29.29,0,0,0-.29.29v.33a.29.29,0,0,0,.29.29" transform="translate(-48.557 -60.406)" fill="#888"/>
    <rect id="Rectangle_2300" data-name="Rectangle 2300" width="1.464" height="1.016" rx="0.508" transform="translate(5.953 8.816)" fill="#888"/>
    <path id="Path_6469" data-name="Path 6469" d="M14.782,69.871c-.078.029-.147.054-.211.075a17.222,17.222,0,0,1-4.537.886v.563a.9.9,0,0,1-.894.894h-.59a.9.9,0,0,1-.894-.894v-.563a17.057,17.057,0,0,1-4.863-1c-.043-.012-.122-.043-.312-.119l-.024-.01-.032-.013v3.666a.733.733,0,0,0,.731.732H14.534a.733.733,0,0,0,.732-.732V69.683l-.163.065Z" transform="translate(-2.161 -62.073)" fill="#888"/>
    <path id="Path_6470" data-name="Path 6470" d="M12.66,24.478H.71a.71.71,0,0,0-.71.71V28.36a.3.3,0,0,0,.143.219s.131.058.34.141a16.647,16.647,0,0,0,5.015,1.1v-.533c0-.354.533-.595.892-.595h.59c.416,0,.891.273.882.688v.44a16.8,16.8,0,0,0,4.385-.858c.431-.149.976-.381.982-.383a.286.286,0,0,0,.142-.214V25.188a.711.711,0,0,0-.71-.71" transform="translate(0 -21.805)" fill="#888"/>
  </g>
</svg>
