<svg xmlns="http://www.w3.org/2000/svg" width="14.683" height="12.914" viewBox="0 0 14.683 12.914">
    <g id="configure" transform="translate(-13.352 -14.036)">
        <g id="Group_4311" data-name="Group 4311" transform="translate(13.352 14.036)">
            <path id="Path_7154" data-name="Path 7154" d="M248.278-235.041a1.767,1.767,0,0,0-.909.735,1.553,1.553,0,0,0,.6,2.151,1.186,1.186,0,0,0,.752.175,1.352,1.352,0,0,0,1.1-.443,1.553,1.553,0,0,0-1-2.653A2.063,2.063,0,0,0,248.278-235.041Z" transform="translate(-247.089 235.079)" fill="#fff"/>
            <path id="Path_7155" data-name="Path 7155" d="M395.116-211.361a2.545,2.545,0,0,1,.012,1.166l-.087.251h4.851c4.583,0,4.857-.006,5.043-.1a.854.854,0,0,0,.414-.653.854.854,0,0,0-.414-.653c-.187-.1-.461-.105-5.026-.105C395.326-211.46,395.075-211.454,395.116-211.361Z" transform="translate(-390.714 212.14)" fill="#fff"/>
            <path id="Path_7156" data-name="Path 7156" d="M446.712-64.926a1.675,1.675,0,0,0-1.114,1.352,1.581,1.581,0,0,0,1.393,1.72,1.58,1.58,0,0,0,1.72-1.393,1.557,1.557,0,0,0-1.458-1.714A2.057,2.057,0,0,0,446.712-64.926Z" transform="translate(-439.809 69.863)" fill="#fff"/>
            <path id="Path_7157" data-name="Path 7157" d="M245.184-37.185a.854.854,0,0,0-.414.653.854.854,0,0,0,.414.653c.181.1.379.105,2.49.105h2.286l-.041-.163a4.1,4.1,0,0,1-.006-1.166l.047-.187h-2.291C245.563-37.291,245.365-37.285,245.184-37.185Z" transform="translate(-244.77 42.984)" fill="#fff"/>
            <path id="Path_7158" data-name="Path 7158" d="M572.891-37.152a4.093,4.093,0,0,1,.006,1.166l-.041.192h2.285c2.56,0,2.571,0,2.793-.414a.639.639,0,0,0,0-.688c-.222-.414-.233-.414-2.8-.414H572.85Z" transform="translate(-563.405 43.004)" fill="#fff"/>
            <path id="Path_7159" data-name="Path 7159" d="M647.212,105.185a1.676,1.676,0,0,0-1.114,1.353,1.565,1.565,0,1,0,3.113.326,1.557,1.557,0,0,0-1.458-1.714A2.07,2.07,0,0,0,647.212,105.185Z" transform="translate(-634.537 -95.351)" fill="#fff"/>
            <path id="Path_7160" data-name="Path 7160" d="M247.2,134.945a.722.722,0,0,0,0,1.306c.186.1.461.105,5.026.105,4.583,0,4.833-.006,4.793-.105a2.542,2.542,0,0,1-.012-1.166l.087-.245h-4.851C247.665,134.84,247.39,134.846,247.2,134.945Z" transform="translate(-246.732 -124.19)" fill="#fff"/>
        </g>
    </g>
</svg>
