<svg id="Group_4869" data-name="Group 4869" xmlns="http://www.w3.org/2000/svg" xmlns:xlink="http://www.w3.org/1999/xlink" width="29.072" height="31.058" viewBox="0 0 29.072 31.058">
  <defs>
    <clipPath id="clip-path">
      <rect id="Rectangle_3649" data-name="Rectangle 3649" width="29.072" height="31.058" fill="#003b82"/>
    </clipPath>
  </defs>
  <g id="Group_4868" data-name="Group 4868" clip-path="url(#clip-path)">
    <path id="Path_7386" data-name="Path 7386" d="M23.669,0a1.39,1.39,0,0,0,.211.078,1.764,1.764,0,0,1,1.42,1.3,2.61,2.61,0,0,1,.112.759q.009,7.352,0,14.7v.226h-1.63v-.99q0-6.855,0-13.71c0-.145.009-.291,0-.437a.273.273,0,0,0-.278-.295,2.242,2.242,0,0,0-.251-.012l-20.773,0c-.207,0-.415,0-.621.008s-.267.092-.283.286c-.008.1-.006.2-.006.3q0,12.158,0,24.317c0,.118,0,.236.011.352a.255.255,0,0,0,.275.256c.134,0,.269,0,.4,0H15.494c.264,0,.256.008.34.259.139.418.29.833.435,1.249.011.031.02.062.04.123H1.982A1.972,1.972,0,0,1,.033,27.32,1.584,1.584,0,0,1,0,26.938q0-8.26,0-16.519Q0,6.091,0,1.764A1.8,1.8,0,0,1,1.47.085.68.68,0,0,0,1.65,0Z" transform="translate(0.001)" fill="#003b82"/>
    <path id="Path_7387" data-name="Path 7387" d="M150.182,216.894a.725.725,0,0,0-.156-.087,1.047,1.047,0,0,1-.773-1.216,1.077,1.077,0,0,1,1.219-.874,1.081,1.081,0,0,1,.508,1.922,2.275,2.275,0,0,1-.343.166c-.053.026-.1.059-.153.088Z" transform="translate(-129.168 -185.835)" fill="#003b82"/>
    <path id="Path_7388" data-name="Path 7388" d="M186.287,216.894c-.046-.029-.088-.077-.138-.085a1.028,1.028,0,0,1-.8-1,1.091,1.091,0,0,1,.724-1.048,1.077,1.077,0,1,1,.671,2.045.526.526,0,0,0-.126.084Z" transform="translate(-160.432 -185.836)" fill="#003b82"/>
    <path id="Path_7389" data-name="Path 7389" d="M116.312,146.415a8.47,8.47,0,0,0,.32.8.913.913,0,0,0,.892.458q1.891.005,3.781.006h2.218a.472.472,0,0,1,.487.286.4.4,0,0,1-.258.549,1.236,1.236,0,0,1-.315.04c-1.8,0-3.6,0-5.394,0a5.95,5.95,0,0,1-.987-.079,1.576,1.576,0,0,1-1.283-1.061c-.225-.63-.4-1.278-.576-1.925-.443-1.64-.872-3.284-1.307-4.926a.879.879,0,0,0-.918-.748c-.4-.015-.806,0-1.209-.011a.713.713,0,0,1-.361-.1.354.354,0,0,1-.164-.408.426.426,0,0,1,.375-.343,7.043,7.043,0,0,1,1.888.086,1.617,1.617,0,0,1,1.157,1.133,4.228,4.228,0,0,1,.125.452c.027.13.094.163.223.163q4.672-.01,9.343-.012c.2,0,.392,0,.588.012a.4.4,0,0,1,.39.509c-.17.729-.351,1.455-.529,2.183q-.28,1.148-.562,2.3c-.025.1-.063.2-.089.306a.406.406,0,0,1-.4.32c-.122.012-.246.014-.369.014h-7.063" transform="translate(-96.266 -120.253)" fill="#003b82"/>
    <path id="Path_7390" data-name="Path 7390" d="M48.295,52.6c-2.106,0-4.212,0-6.317,0a.805.805,0,0,1-.855-.817.8.8,0,0,1,.862-.8q5.956-.005,11.913,0c.263,0,.527,0,.79,0a.829.829,0,0,1,.81.693.812.812,0,0,1-.6.89.9.9,0,0,1-.248.028q-3.176,0-6.351,0" transform="translate(-35.593 -44.13)" fill="#003b82"/>
    <path id="Path_7391" data-name="Path 7391" d="M48.324,102.625H42.055a.8.8,0,0,1-.874-.583.742.742,0,0,1,.321-.873,1.221,1.221,0,0,1,.552-.164q6.269-.014,12.538-.006a.851.851,0,0,1,.928.879.807.807,0,0,1-.71.735c-.442.019-.885.011-1.327.012H48.324" transform="translate(-35.613 -87.419)" fill="#003b82"/>
    <path id="Path_7392" data-name="Path 7392" d="M44.585,152.729H41.932a.819.819,0,0,1-.878-.745.807.807,0,0,1,.454-.76,1.457,1.457,0,0,1,.533-.117c1.662-.008,3.325,0,4.987,0a1.17,1.17,0,0,1,.763.2.8.8,0,0,1,.255.893.787.787,0,0,1-.776.53q-1.343,0-2.686,0" transform="translate(-35.53 -130.785)" fill="#003b82"/>
  </g>
</svg>
