<svg xmlns="http://www.w3.org/2000/svg" width="8.405" height="8.405" viewBox="0 0 8.405 8.405">
    <g id="rocket-2" transform="translate(0.237 -4.253)">
        <g id="Group_321" data-name="Group 321" transform="translate(-0.237 4.253)">
            <g id="Group_320" data-name="Group 320" transform="translate(0)">
                <g id="Layer_2" data-name="Layer 2">
                    <g id="Layer_1" data-name="Layer 1">
                        <g id="rocket">
                            <path id="Path_208" data-name="Path 208" d="M15.457,50.666a.358.358,0,0,1-.252-.608l.536-.531a.356.356,0,1,1,.5.5l-.536.536A.356.356,0,0,1,15.457,50.666Z" transform="translate(-12.912 -42.261)" fill="#03adeb"/>
                            <path id="Path_209" data-name="Path 209" d="M.352,35.708A.356.356,0,0,1,.1,35.1l.537-.536a.356.356,0,0,1,.5.5L.6,35.6A.36.36,0,0,1,.352,35.708Z" transform="translate(0.004 -29.49)" fill="#03adeb"/>
                            <path id="Path_210" data-name="Path 210" d="M3.184,43.778a.361.361,0,0,1-.252-.1.356.356,0,0,1,0-.5l1.22-1.22a.356.356,0,1,1,.5.5l-1.218,1.22A.361.361,0,0,1,3.184,43.778Z" transform="translate(-2.417 -35.783)" fill="#03adeb"/>
                            <path id="Path_211" data-name="Path 211" d="M32.792,35.39a.325.325,0,0,1-.09-.013.356.356,0,0,1-.254-.248l-.522-1.884a.356.356,0,0,1,.687-.19l.359,1.294.811-.811L33.5,32.067a.356.356,0,1,1,.7-.142l.328,1.657a.358.358,0,0,1-.1.322L33.05,35.28A.352.352,0,0,1,32.792,35.39Z" transform="translate(-27.289 -27.056)" fill="#03adeb"/>
                            <path id="Path_212" data-name="Path 212" d="M13.52,6.812a.356.356,0,0,1-.252-.105l-2.09-2.092a.352.352,0,0,1-.093-.345A5.758,5.758,0,0,1,17.5.1a.355.355,0,0,1,.285.285A5.76,5.76,0,0,1,13.614,6.8.356.356,0,0,1,13.52,6.812ZM11.828,4.262l1.794,1.793a5.046,5.046,0,0,0,3.5-5.3A5.047,5.047,0,0,0,11.828,4.262Z" transform="translate(-9.467 -0.012)" fill="#03adeb"/>
                            <path id="Path_213" data-name="Path 213" d="M2.726,10.679a.366.366,0,0,1-.1-.013L.748,10.143a.356.356,0,0,1-.157-.6L1.97,8.171a.356.356,0,0,1,.321-.1L3.947,8.4a.357.357,0,0,1-.142.7L2.334,8.815l-.806.805,1.294.359a.356.356,0,0,1-.1.7Z" transform="translate(-0.416 -6.899)" fill="#03adeb"/>
                            <path id="Path_214" data-name="Path 214" d="M31.3,14.681a1.1,1.1,0,0,1-.785-.325,1.108,1.108,0,1,1,.785.325ZM31.832,14.1Zm-.534-.932a.4.4,0,0,0-.285.68.409.409,0,0,0,.57,0,.4.4,0,0,0-.285-.68Z" transform="translate(-25.81 -10.653)" fill="#03adeb"/>
                        </g>
                    </g>
                </g>
            </g>
        </g>
    </g>
</svg>
