<svg xmlns="http://www.w3.org/2000/svg" width="28.498" height="28.502" viewBox="0 0 28.498 28.502">
    <g id="Page-1" transform="translate(0 0)">
        <g id="_019---Present" data-name="019---Present" transform="translate(0 0)">
            <g id="Icons_copy" transform="translate(0.45 0.45)">
                <circle id="Oval" cx="7.879" cy="7.879" r="7.879" transform="translate(11.176 0.67)" fill="#ffdc00"/>
                <path id="Path" d="M39.175,0c-.228,0-.45.016-.675.034a8.094,8.094,0,0,1,0,16.134c.225.018.447.034.675.034a8.1,8.1,0,0,0,0-16.2Z" transform="translate(-19.675)" fill="#ff8401" fill-rule="evenodd"/>
                <path id="Path-2" data-name="Path" d="M15.076,25.051a2.025,2.025,0,1,0-2.025-2.025,2.025,2.025,0,1,0-2.025,2.025Z" transform="translate(-4.612 -10.907)" fill="#48bdff" fill-rule="evenodd"/>
                <path id="Path-3" data-name="Path" d="M20.85,21a2,2,0,0,0-.675.124,2.02,2.02,0,0,1-.675,3.926h1.35a2.025,2.025,0,0,0,0-4.051Z" transform="translate(-10.145 -10.907)" fill="#2c98f6" fill-rule="evenodd"/>
                <path id="Path-4" data-name="Path" d="M9.9,32.7h5.851a.45.45,0,0,0,.45-.45v-1.8a.45.45,0,0,0-.45-.45H.45a.45.45,0,0,0-.45.45v1.8a.45.45,0,0,0,.45.45Z" transform="translate(0 -15.634)" fill="#ffdc00" fill-rule="evenodd"/>
                <path id="Path-5" data-name="Path" d="M33.35,30H32a.45.45,0,0,1,.45.45v1.8a.45.45,0,0,1-.45.45h1.35a.45.45,0,0,0,.45-.45v-1.8A.45.45,0,0,0,33.35,30Z" transform="translate(-16.71 -15.634)" fill="#ff8401" fill-rule="evenodd"/>
                <path id="Path-6" data-name="Path" d="M11.121,36H16.4v9.451a.45.45,0,0,1-.45.45H2.45a.45.45,0,0,1-.45-.45V36H7.281" transform="translate(-1.1 -18.3)" fill="#ffdc00" fill-rule="evenodd"/>
                <path id="Path-7" data-name="Path" d="M30.45,36v9.451a.45.45,0,0,1-.45.45h1.35a.45.45,0,0,0,.45-.45V36Z" transform="translate(-15.666 -18.3)" fill="#ff8401" fill-rule="evenodd"/>
                <rect id="Rectangle" width="3.377" height="3.377" rx="1" transform="translate(6.716 13.912)" fill="#48bdff"/>
                <path id="Path-8" data-name="Path" d="M19.35,29H18a.45.45,0,0,1,.45.45v2.7a.45.45,0,0,1-.45.45h1.35a.45.45,0,0,0,.45-.45v-2.7A.45.45,0,0,0,19.35,29Z" transform="translate(-9.4 -15.079)" fill="#2c98f6" fill-rule="evenodd"/>
                <rect id="Rectangle-2" data-name="Rectangle" width="3.377" height="9.004" transform="translate(6.716 17.926)" fill="#48bdff"/>
                <rect id="Rectangle-3" data-name="Rectangle" width="1.126" height="9.004" transform="translate(9.065 17.926)" fill="#2c98f6"/>
                <path id="Path-9" data-name="Path" d="M39.1,9.89a.883.883,0,0,1-.259.63l-6.32,6.316a.893.893,0,0,1-1.262-1.263l6.317-6.316A.89.89,0,0,1,39.1,9.89Z" transform="translate(-15.89 -4.609)" fill="#fff" fill-rule="evenodd"/>
                <circle id="Oval-2" data-name="Oval" cx="1.126" cy="1.126" r="1.126" transform="translate(15.07 4.301)" fill="#fff"/>
                <path id="Path-10" data-name="Path" d="M33.175,9a1.336,1.336,0,0,0-.675.187,1.339,1.339,0,0,1,0,2.326,1.336,1.336,0,0,0,.675.187,1.35,1.35,0,1,0,0-2.7Z" transform="translate(-16.963 -4.69)" fill="#ccc" fill-rule="evenodd"/>
                <circle id="Oval-3" data-name="Oval" cx="1.126" cy="1.126" r="1.126" transform="translate(21.052 10.282)" fill="#fff"/>
                <path id="Path-11" data-name="Path" d="M45.175,21a1.336,1.336,0,0,0-.675.187,1.339,1.339,0,0,1,0,2.326,1.336,1.336,0,0,0,.675.187,1.35,1.35,0,0,0,0-2.7Z" transform="translate(-23.226 -10.944)" fill="#ccc" fill-rule="evenodd"/>
            </g>
            <g id="Icons_copy_2" transform="translate(0.45 0.45)">
                <path id="Path-12" data-name="Path" d="M.45,32.7H.9v9.451a.45.45,0,0,0,.45.45H2.7a.45.45,0,0,1-.45-.45V32.7H1.8a.45.45,0,0,1-.45-.45v-1.8A.45.45,0,0,1,1.8,30H.45a.45.45,0,0,0-.45.45v1.8A.45.45,0,0,0,.45,32.7Z" transform="translate(0 -15)" fill="#fff" fill-rule="evenodd"/>
                <path id="Path-13" data-name="Path" d="M10.35,23.025a2.018,2.018,0,0,1,1.35-1.9A2,2,0,0,0,11.025,21a2.025,2.025,0,1,0,0,4.051h1.35A2.025,2.025,0,0,1,10.35,23.025Z" transform="translate(-4.949 -10.907)" fill="#fff" fill-rule="evenodd"/>
                <path id="Path-14" data-name="Path" d="M22.742,9.575a2,2,0,0,1,.32-.09,1.948,1.948,0,0,1,.252-.026,8.049,8.049,0,0,1,7.3-9.426C30.393.016,30.17,0,29.943,0s-.45.016-.675.034a8.049,8.049,0,0,0-7.3,9.427,1.948,1.948,0,0,0-.252.026Z" transform="translate(-11.94)" fill="#fff" fill-rule="evenodd"/>
            </g>
            <g id="Icons" transform="translate(0 0)">
                <rect id="Rectangle-4" data-name="Rectangle" width="1.126" height="3.377" transform="translate(1.123 17.949)" fill="#fff"/>
                <path id="Path-15" data-name="Path" d="M2.467,40.9a.45.45,0,1,1,0-.9h0a.45.45,0,1,1,0,.9Z" transform="translate(-1.108 -20.964)" fill-rule="evenodd"/>
                <path id="Shape" d="M.9,28.612H6.426a.907.907,0,0,0,.325.325v8.676H1.8V31.762a.45.45,0,1,0-.9,0v5.851a.9.9,0,0,0,.9.9H15.3a.9.9,0,0,0,.9-.9v-9a.9.9,0,0,0,.9-.9v-1.8a.9.9,0,0,0-.9-.9H12.484a2.475,2.475,0,1,0-3.933-2.994,2.475,2.475,0,1,0-3.933,2.994H.9a.9.9,0,0,0-.9.9v1.8A.9.9,0,0,0,.9,28.612Zm9-.452v0H7.2v-2.7H9.9Zm-2.25,9.453V29.062h1.8v8.551Zm7.651,0H10.351V28.937a.907.907,0,0,0,.325-.325H15.3Zm.9-9.9H10.8v-1.8h5.4ZM6.526,21.861A1.575,1.575,0,0,1,8.1,23.436a.45.45,0,1,0,.9,0A1.575,1.575,0,1,1,10.671,25a.9.9,0,0,0-.77-.441H7.2a.9.9,0,0,0-.77.441,1.572,1.572,0,0,1,.095-3.141ZM.9,25.911H6.3v1.8H.9Z" transform="translate(0 -10.011)"/>
                <path id="Path-16" data-name="Path" d="M22.02,8.081a.45.45,0,0,0,.425.474.456.456,0,0,0,.474-.425,7.651,7.651,0,1,1,7.6,8.072.432.432,0,0,0-.428.45.47.47,0,0,0,.473.45A8.551,8.551,0,1,0,22.02,8.081Z" transform="translate(-10.611 0)" fill-rule="evenodd"/>
                <path id="Shape-2" data-name="Shape" d="M32.34,18.017a1.333,1.333,0,0,0,.949-.393l6.318-6.318a1.35,1.35,0,0,0,0-1.9,1.376,1.376,0,0,0-1.9,0l-6.319,6.318a1.342,1.342,0,0,0,.95,2.29Zm-.315-1.654,6.32-6.317a.442.442,0,0,1,.626.626l-6.318,6.317a.442.442,0,0,1-.625-.626Z" transform="translate(-15.549 -4.627)"/>
                <path id="Shape-3" data-name="Shape" d="M32.8,12.6A1.8,1.8,0,1,0,31,10.8,1.8,1.8,0,0,0,32.8,12.6Zm0-2.7a.9.9,0,1,1-.9.9A.9.9,0,0,1,32.8,9.9Z" transform="translate(-16.155 -4.69)"/>
                <path id="Shape-4" data-name="Shape" d="M44.8,21a1.8,1.8,0,1,0,1.8,1.8A1.8,1.8,0,0,0,44.8,21Zm0,2.7a.9.9,0,1,1,.9-.9A.9.9,0,0,1,44.8,23.7Z" transform="translate(-22.15 -10.944)"/>
                <path id="Path-17" data-name="Path" d="M6.45,51a.45.45,0,0,0-.45.45V52.8a.45.45,0,0,0,.45.45H7.8a.45.45,0,1,0,0-.9H6.9v-.9A.45.45,0,0,0,6.45,51Z" transform="translate(-3.3 -26.549)" fill-rule="evenodd"/>
            </g>
        </g>
    </g>
</svg>
