<svg xmlns="http://www.w3.org/2000/svg" width="25.674" height="24.748" viewBox="0 0 25.674 24.748">
    <g id="Group_4395" data-name="Group 4395" transform="translate(-29 -14.252)">
        <circle id="Ellipse_122" data-name="Ellipse 122" cx="12" cy="12" r="12" transform="translate(29 15)" fill="#2bb9ed"/>
        <g id="Home" transform="translate(29.499 12.639)">
            <path id="Path_136" data-name="Path 136" d="M13.364,20.046V16.705" fill="none" stroke="#292d32" stroke-linecap="round" stroke-linejoin="round" stroke-width="1.3"/>
            <path id="Path_137" data-name="Path 137" d="M11.215,3.141,3.5,9.322a3.757,3.757,0,0,0-1.236,3.241l1.481,8.865A3.552,3.552,0,0,0,7.128,24.29H19.6a3.574,3.574,0,0,0,3.386-2.862l1.481-8.865a3.819,3.819,0,0,0-1.236-3.241l-7.718-6.17a3.592,3.592,0,0,0-4.3-.011Z" fill="none" stroke="#292d32" stroke-linecap="round" stroke-linejoin="round" stroke-width="1.3"/>
        </g>
    </g>
</svg>
