<svg xmlns="http://www.w3.org/2000/svg" xmlns:xlink="http://www.w3.org/1999/xlink" width="25" height="25" viewBox="0 0 25 25">
    <defs>
        <clipPath id="clip-path">
            <rect id="Rectangle_3037" data-name="Rectangle 3037" width="24" height="24" transform="translate(101 734)" fill="#bc4040"/>
        </clipPath>
    </defs>
    <g id="Group_4396" data-name="Group 4396" transform="translate(-100 -735)">
        <circle id="Ellipse_123" data-name="Ellipse 123" cx="12" cy="12" r="12" transform="translate(100 736)" fill="#2bb9ed"/>
        <g id="Mask_Group_19" data-name="Mask Group 19" transform="translate(0 1)" clip-path="url(#clip-path)">
            <g id="category-2" transform="translate(99.605 732.605)">
                <path id="Path_7162" data-name="Path 7162" d="M18.977,11.163h2.233q3.349,0,3.349-3.349V5.581q0-3.349-3.349-3.349H18.977q-3.349,0-3.349,3.349V7.814Q15.628,11.163,18.977,11.163Z" fill="none" stroke="#292d32" stroke-linecap="round" stroke-linejoin="round" stroke-miterlimit="10" stroke-width="1.3"/>
                <path id="Path_7163" data-name="Path 7163" d="M5.581,24.558H7.814q3.349,0,3.349-3.349V18.977q0-3.349-3.349-3.349H5.581q-3.349,0-3.349,3.349v2.233Q2.233,24.558,5.581,24.558Z" fill="none" stroke="#292d32" stroke-linecap="round" stroke-linejoin="round" stroke-miterlimit="10" stroke-width="1.3"/>
                <path id="Path_7164" data-name="Path 7164" d="M6.7,11.163A4.465,4.465,0,1,0,2.233,6.7,4.465,4.465,0,0,0,6.7,11.163Z" fill="none" stroke="#292d32" stroke-linecap="round" stroke-linejoin="round" stroke-miterlimit="10" stroke-width="1.3"/>
                <path id="Path_7165" data-name="Path 7165" d="M20.093,24.558a4.465,4.465,0,1,0-4.465-4.465A4.465,4.465,0,0,0,20.093,24.558Z" fill="none" stroke="#292d32" stroke-linecap="round" stroke-linejoin="round" stroke-miterlimit="10" stroke-width="1.3"/>
            </g>
        </g>
    </g>
</svg>
