<svg id="Group_4390" data-name="Group 4390" xmlns="http://www.w3.org/2000/svg" xmlns:xlink="http://www.w3.org/1999/xlink" width="11.976" height="11.513" viewBox="0 0 11.976 11.513">
  <defs>
    <clipPath id="clip-path">
      <rect id="Rectangle_2303" data-name="Rectangle 2303" width="11.976" height="11.513" fill="#888888"/>
    </clipPath>
  </defs>
  <g id="Group_3144" data-name="Group 3144" transform="translate(0 0)" clip-path="url(#clip-path)">
    <path id="Path_6472" data-name="Path 6472" d="M1.826,6.249v4.837a.5.5,0,0,0,.264.369.59.59,0,0,0,.315.059H4.613a.366.366,0,0,0,.215-.059.327.327,0,0,0,.05-.21V8.927H7.094v2.317a.307.307,0,0,0,.054.21.286.286,0,0,0,.21.059H9.571a.6.6,0,0,0,.315-.059.379.379,0,0,0,.21-.369V6.249L5.986,2.513Zm9.9-1.318L6.515.2A.809.809,0,0,0,5.461.2L.243,4.931A.821.821,0,0,0,.188,6.039a.84.84,0,0,0,.579.26,1.074,1.074,0,0,0,.529-.21L5.986,1.824l4.694,4.265a.82.82,0,0,0,1.1-.05.813.813,0,0,0-.055-1.108" transform="translate(0 0)" fill="#888888"/>
  </g>
</svg>
