<svg xmlns="http://www.w3.org/2000/svg" width="17.336" height="17.025" viewBox="0 0 17.336 17.025">
  <g id="Wallet_icon" data-name="Wallet icon" transform="translate(0 -0.001)">
    <path id="Path_7275" data-name="Path 7275" d="M0,15.764V3.4c.007-.009.018-.018.019-.028A1.4,1.4,0,0,1,1.47,2.155c1.366.009,2.73,0,4.1,0a1.416,1.416,0,0,0,.35-.029q4.1-1.041,8.2-2.089a.82.82,0,0,1,1.081.693c.084.357.173.714.242,1.075.044.229.105.361.367.424a1.372,1.372,0,0,1,.992,1.436q0,2.278,0,4.555v.213c.038.005.06.01.081.011.362.019.46.124.46.5v3.608c0,.335-.108.453-.419.467-.038,0-.075.01-.122.016v.2c0,.757.011,1.513-.007,2.269a1.862,1.862,0,0,1-.142.706,1.333,1.333,0,0,1-1.336.81q-6.915-.006-13.828,0c-.084,0-.17,0-.253-.01a1.3,1.3,0,0,1-.872-.456A1.7,1.7,0,0,1,0,15.764ZM.542,4.723V15.532a.835.835,0,0,0,.9.92H15.355a.842.842,0,0,0,.9-.955q0-1.143,0-2.287c0-.058-.005-.115-.009-.188H12.428c-.388,0-.508-.126-.508-.531V9.007c0-.436.118-.56.537-.56h3.791c0-.9.01-1.784-.006-2.664a.716.716,0,0,0-.43-.657,1.32,1.32,0,0,0-.524-.106q-6.746-.008-13.492,0A1.754,1.754,0,0,1,.541,4.723ZM3.8,3.259c0,.014,0,.028,0,.042h10.12a1.134,1.134,0,0,1,.218.016.255.255,0,0,1,.217.292.254.254,0,0,1-.238.256.874.874,0,0,1-.1.005H1.418c-.2,0-.315-.089-.332-.252s.079-.277.272-.326L3.2,2.824c.078-.02.155-.045.232-.069-.368-.027-.729-.03-1.09-.027s-.734-.005-1.1.023a.732.732,0,0,0-.635.518A.855.855,0,0,0,1.48,4.446q6.755,0,13.509,0a1.839,1.839,0,0,1,1.254.284.826.826,0,0,0-.788-.853c-.1-.005-.192,0-.287-.005a.257.257,0,0,1-.26-.253A.261.261,0,0,1,15.1,3.32c.036-.012.072-.025.111-.039-.007-.046-.008-.081-.016-.116Q14.934,2.031,14.671.9C14.6.587,14.5.525,14.211.6L6.228,2.64Q5.014,2.95,3.8,3.258Zm8.672,5.769v3.408h4.314V9.028H12.472Zm3.2-6.231c.04.177.077.348.119.518a.115.115,0,0,0,.059.056c.131.066.264.128.4.191A.772.772,0,0,0,15.67,2.8Z" transform="translate(0 0)" fill="#52555b"/>
  </g>
</svg>
