<svg xmlns="http://www.w3.org/2000/svg" width="20" height="20" viewBox="0 0 20 20">
    <g id="info-circle" transform="translate(-2 -2)">
        <g id="Group_364" data-name="Group 364">
            <path id="Path_220" data-name="Path 220" d="M12,2A10,10,0,1,0,22,12,10.016,10.016,0,0,0,12,2Zm-.75,6a.75.75,0,0,1,1.5,0v5a.75.75,0,0,1-1.5,0Zm1.67,8.38a1.032,1.032,0,0,1-.21.33,1.155,1.155,0,0,1-.33.21.943.943,0,0,1-.76,0,1.155,1.155,0,0,1-.33-.21,1.032,1.032,0,0,1-.21-.33.943.943,0,0,1,0-.76.9.9,0,0,1,.54-.54,1,1,0,0,1,.76,0,.9.9,0,0,1,.54.54.942.942,0,0,1,0,.76Z" fill="#fff"/>
        </g>
    </g>
</svg>
