<svg xmlns="http://www.w3.org/2000/svg" xmlns:xlink="http://www.w3.org/1999/xlink" width="42.437" height="44.764" viewBox="0 0 42.437 44.764">
  <defs>
    <clipPath id="clip-path">
      <rect id="Rectangle_3582" data-name="Rectangle 3582" width="42.437" height="44.764" fill="none"/>
    </clipPath>
    <clipPath id="clip-path-2">
      <rect id="Rectangle_3581" data-name="Rectangle 3581" width="42.437" height="41.748" fill="none"/>
    </clipPath>
    <clipPath id="clip-path-3">
      <rect id="Rectangle_3579" data-name="Rectangle 3579" width="2.146" height="3.078" fill="none"/>
    </clipPath>
    <clipPath id="clip-path-4">
      <rect id="Rectangle_3580" data-name="Rectangle 3580" width="1.832" height="3.648" fill="none"/>
    </clipPath>
  </defs>
  <g id="Group_4769" data-name="Group 4769" transform="translate(0 2)">
    <g id="Group_4768" data-name="Group 4768" transform="translate(0 -2)" clip-path="url(#clip-path)">
      <g id="Group_4767" data-name="Group 4767" transform="translate(0 3.016)">
        <g id="Group_4766" data-name="Group 4766" transform="translate(0 0)" clip-path="url(#clip-path-2)">
          <path id="Path_7331" data-name="Path 7331" d="M101.768,18.339s2.819-2.359,2.67-5.083a5.259,5.259,0,0,0-3.288,1.216,3.007,3.007,0,0,0-2.368-2.87,3.007,3.007,0,0,0-2.367,2.87,5.259,5.259,0,0,0-3.288-1.216c-.148,2.724,2.67,5.083,2.67,5.083Z" transform="translate(-78.057 -9.756)" fill="#3eadff"/>
          <path id="Path_7332" data-name="Path 7332" d="M108.384,31.293l-.348-2.383,2.439,1.374.865-3.016.8,3.016,2.6-1.374-.556,2.383Z" transform="translate(-90.559 -22.928)" fill="#0993d8"/>
          <path id="Path_7333" data-name="Path 7333" d="M68.463,88.371H53.514c-.114,0-.228,0-.34-.011a5.4,5.4,0,0,1-4.982-6.655l.1-.388,3.118-12.576a5.461,5.461,0,0,1,5.322-4.112H65.25A5.513,5.513,0,0,1,69.309,66.4a5.355,5.355,0,0,1,1.263,2.341l3.116,12.576.1.388a5.41,5.41,0,0,1-5.322,6.665" transform="translate(-40.264 -54.344)" fill="#3eadff"/>
          <path id="Path_7334" data-name="Path 7334" d="M68.463,176.546H53.514c-.114,0-.228,0-.34-.011a5.4,5.4,0,0,1-4.982-6.655l.1-.388a6.189,6.189,0,0,0,6.467,5.745H67.221a6.189,6.189,0,0,0,6.467-5.745l.1.388a5.41,5.41,0,0,1-5.322,6.665" transform="translate(-40.264 -142.519)" fill="#008bc1"/>
          <rect id="Rectangle_3577" data-name="Rectangle 3577" width="8.381" height="0.924" transform="translate(16.535 9.362)" fill="#ffa143"/>
          <rect id="Rectangle_3578" data-name="Rectangle 3578" width="7.195" height="0.778" transform="translate(17.128 8.584)" fill="#ffb361"/>
          <path id="Path_7335" data-name="Path 7335" d="M96.966,103.32a.5.5,0,0,0-.147.445l.648,3.707a.51.51,0,0,1-.741.53l-3.386-1.751a.514.514,0,0,0-.474,0L89.479,108a.508.508,0,0,1-.74-.53l.646-3.707a.5.5,0,0,0-.147-.445L86.5,100.694a.5.5,0,0,1,.282-.856l3.785-.542a.5.5,0,0,0,.384-.274l1.693-3.374a.514.514,0,0,1,.915,0l1.693,3.374a.51.51,0,0,0,.384.274l3.785.542a.5.5,0,0,1,.284.856Z" transform="translate(-72.377 -80.191)" fill="#ffb92c"/>
          <path id="Path_7336" data-name="Path 7336" d="M174.561,95.6l-3.288-13.334c-.216-.875-1.588-.5-1.372.372l3.288,13.334c.216.875,1.588.5,1.372-.372" transform="translate(-142.397 -68.749)" fill="#64c4ff"/>
          <path id="Path_7337" data-name="Path 7337" d="M68.106,168.636a2.969,2.969,0,0,1-2.5-3.255c.072-.9-1.351-.894-1.423,0a4.339,4.339,0,0,0,3.543,4.6c.894.176,1.277-1.173.378-1.35" transform="translate(-53.79 -138.497)" fill="#64c4ff"/>
          <path id="Path_7338" data-name="Path 7338" d="M191.547,180.131a.952.952,0,1,1-.952-.936.944.944,0,0,1,.952.936" transform="translate(-158.964 -150.677)" fill="#64c4ff"/>
          <g id="Group_4762" data-name="Group 4762" transform="translate(19.269 16.39)" style="mix-blend-mode: soft-light;isolation: isolate">
            <g id="Group_4761" data-name="Group 4761">
              <g id="Group_4760" data-name="Group 4760" clip-path="url(#clip-path-3)">
                <path id="Path_7339" data-name="Path 7339" d="M120.727,103.017a.731.731,0,0,0-.875.489l-.7,1.675a.7.7,0,0,0,.5.861.731.731,0,0,0,.875-.489l.7-1.675a.7.7,0,0,0-.5-.861" transform="translate(-119.115 -102.991)" fill="#fff2d4"/>
              </g>
            </g>
          </g>
          <g id="Group_4765" data-name="Group 4765" transform="translate(17.004 23.184)" style="mix-blend-mode: soft-light;isolation: isolate">
            <g id="Group_4764" data-name="Group 4764">
              <g id="Group_4763" data-name="Group 4763" clip-path="url(#clip-path-4)">
                <path id="Path_7340" data-name="Path 7340" d="M105.529,146.233l-.407,2.29a.712.712,0,0,0,1.4.248l.407-2.29a.712.712,0,0,0-1.4-.248" transform="translate(-105.109 -145.678)" fill="#fff2d4"/>
              </g>
            </g>
          </g>
          <path id="Path_7341" data-name="Path 7341" d="M200.711,89.642a3.534,3.534,0,0,0-1.879,2.526,3.534,3.534,0,0,0-1.879-2.526,3.534,3.534,0,0,0,1.879-2.526,3.534,3.534,0,0,0,1.879,2.526" transform="translate(-165.091 -74.324)" fill="#b1defe"/>
          <path id="Path_7348" data-name="Path 7348" d="M200.711,89.642a3.534,3.534,0,0,0-1.879,2.526,3.534,3.534,0,0,0-1.879-2.526,3.534,3.534,0,0,0,1.879-2.526,3.534,3.534,0,0,0,1.879,2.526" transform="translate(-161.217 -85.457)" fill="#b1defe"/>
          <path id="Path_7342" data-name="Path 7342" d="M186.973,59.56a2.566,2.566,0,0,0-1.365,1.835,2.566,2.566,0,0,0-1.365-1.835,2.566,2.566,0,0,0,1.365-1.835,2.566,2.566,0,0,0,1.365,1.835" transform="translate(-154.438 -49.61)" fill="#b1defe"/>
          <path id="Path_7343" data-name="Path 7343" d="M213.214,70.882a.939.939,0,1,1-.939-.923.931.931,0,0,1,.939.923" transform="translate(-177.149 -58.826)" fill="#b1defe"/>
          <path id="Path_7344" data-name="Path 7344" d="M34.379,117.335a3.534,3.534,0,0,0-1.879,2.526,3.534,3.534,0,0,0-1.879-2.526,3.534,3.534,0,0,0,1.879-2.526,3.534,3.534,0,0,0,1.879,2.526" transform="translate(-25.667 -96.538)" fill="#b1defe"/>
          <path id="Path_7345" data-name="Path 7345" d="M28.67,88.951A2.566,2.566,0,0,0,27.3,90.785a2.566,2.566,0,0,0-1.365-1.835A2.566,2.566,0,0,0,27.3,87.116a2.566,2.566,0,0,0,1.365,1.835" transform="translate(-21.744 -73.252)" fill="#b1defe"/>
          <path id="Path_7346" data-name="Path 7346" d="M52.862,89.18a.939.939,0,1,1-.939-.923.931.931,0,0,1,.939.923" transform="translate(-42.737 -74.212)" fill="#b1defe"/>
        </g>
      </g>
    </g>
  </g>
</svg>
